<svg width="32" height="33" viewBox="0 0 32 33" fill="none" xmlns="http://www.w3.org/2000/svg">
<path d="M16.0674 0.5H16.0684C18.0947 0.494531 20.102 0.902408 21.9746 1.69922C23.8472 2.49606 25.5485 3.66616 26.9785 5.14355L26.9805 5.14551C28.4178 6.61446 29.558 8.36262 30.334 10.2881C31.1099 12.2134 31.5063 14.278 31.5 16.3623V16.3633C31.4961 25.1168 24.5591 32.2166 16.0674 32.2168H16.0605C13.4865 32.2165 10.9522 31.5538 8.69043 30.2891L8.51367 30.1904L8.31641 30.2432L0.706055 32.292L2.74414 24.6553L2.79688 24.458L2.69727 24.2803C1.34539 21.877 0.633795 19.1486 0.633789 16.3516L0.639648 15.9424C0.85561 7.37913 7.70692 0.5 16.0674 0.5ZM16.0723 2.2627C8.48016 2.26272 2.32673 8.59509 2.3252 16.3525L2.33301 16.8486C2.40897 19.1606 3.04063 21.4183 4.17188 23.4209L4.42188 23.8467L4.62402 24.1768L3.34277 28.9873L3.12012 29.8232L3.95605 29.5986L8.76074 28.3037L9.06152 28.4863V28.4873C11.1797 29.775 13.5977 30.4543 16.0615 30.4541H16.0674C23.5358 30.4539 29.6127 24.3175 29.8047 16.7266L29.8096 16.3643C29.8152 14.5142 29.4636 12.681 28.7744 10.9707C28.128 9.36681 27.1966 7.89993 26.0283 6.64551L25.791 6.39746C23.1987 3.73457 19.7456 2.2627 16.0723 2.2627ZM10.4258 9.2998C10.6886 9.29981 10.9426 9.30225 11.1611 9.3125V9.31348C11.2095 9.3162 11.2579 9.31551 11.2861 9.31543C11.3195 9.31533 11.3391 9.31537 11.3564 9.31641C11.3723 9.31735 11.3809 9.31847 11.3848 9.31934C11.3878 9.32002 11.389 9.32098 11.3896 9.32129C11.391 9.32199 11.3955 9.32458 11.4033 9.33105C11.4127 9.3389 11.4293 9.35428 11.4502 9.38086C11.4932 9.43563 11.553 9.53352 11.6221 9.70312C11.7872 10.1114 12.0677 10.8157 12.3213 11.4482C12.5675 12.0625 12.8019 12.6443 12.8633 12.7695C12.9001 12.8446 12.915 12.8959 12.9189 12.9336C12.922 12.9632 12.92 12.9963 12.8965 13.0449C12.7504 13.3433 12.7139 13.4464 12.5625 13.6279C12.3337 13.9024 12.1539 14.1478 11.9922 14.3125L11.9912 14.3145C11.9046 14.4033 11.7212 14.5835 11.6309 14.833C11.5244 15.1273 11.567 15.4366 11.7402 15.7422C11.9804 16.1667 12.8105 17.5594 14.0518 18.6963C15.6363 20.1464 17.0154 20.6205 17.3613 20.7998L17.3643 20.8008C17.5956 20.919 17.862 21.0147 18.1465 20.9795C18.4523 20.9415 18.6733 20.7672 18.8359 20.5752L18.835 20.5742C19.0617 20.3078 19.8471 19.3664 20.1328 18.9248C20.1623 18.8795 20.1839 18.8549 20.1963 18.8428C20.2052 18.8438 20.2194 18.8449 20.2393 18.8496C20.2872 18.861 20.3475 18.8809 20.4365 18.9141C20.5916 18.973 21.1404 19.238 21.7363 19.5332C22.319 19.8218 22.9052 20.1186 23.1016 20.2197H23.1025C23.331 20.3369 23.46 20.3947 23.5791 20.4619C23.6084 20.4784 23.6287 20.493 23.6436 20.5029C23.6445 20.5115 23.6466 20.5211 23.6475 20.5322C23.6539 20.615 23.6544 20.7354 23.6416 20.8877C23.6161 21.1917 23.5408 21.5944 23.3887 22.0312C23.2782 22.3479 22.9152 22.7279 22.4053 23.0635C21.9055 23.3923 21.385 23.5997 21.0986 23.6436H21.0977C20.4565 23.7427 19.6749 23.7795 18.8232 23.501L18.8213 23.5L18.3643 23.3486C17.877 23.1826 17.2965 22.9674 16.6006 22.6592C12.7617 20.9581 10.2353 16.976 10 16.6533H10.001C9.90568 16.5218 9.5194 15.9949 9.15723 15.2627C8.79159 14.5234 8.4707 13.615 8.4707 12.7197C8.47085 10.9123 9.37662 10.0487 9.7373 9.64453C9.9918 9.35836 10.279 9.2998 10.4258 9.2998Z" fill="white" stroke="white"/>
</svg>
