<svg viewBox="0 0 100 100" xmlns="http://www.w3.org/2000/svg" fill="none" stroke="#0B5ED7" stroke-width="2" stroke-linecap="round" stroke-linejoin="round">
  <!-- Head -->
  <circle cx="50" cy="28" r="10"/>
  
  <!-- Hair/Fur -->
  <path d="M 42 22 Q 40 15 45 10 Q 50 8 55 10 Q 60 15 58 22"/>
  <path d="M 40 25 L 35 20"/>
  <path d="M 60 25 L 65 20"/>
  
  <!-- Ears -->
  <ellipse cx="40" cy="25" rx="3" ry="6"/>
  <ellipse cx="60" cy="25" rx="3" ry="6"/>
  
  <!-- Body -->
  <rect x="45" y="40" width="10" height="20" rx="2"/>
  
  <!-- Legs -->
  <line x1="48" y1="60" x2="48" y2="75"/>
  <line x1="52" y1="60" x2="52" y2="75"/>
  
  <!-- Paws -->
  <circle cx="48" cy="80" r="2"/>
  <circle cx="52" cy="80" r="2"/>
  
  <!-- Grooming marks -->
  <path d="M 55 45 Q 62 48 65 50"/>
  <path d="M 55 52 Q 62 54 65 56"/>
</svg>
