<?xml version="1.0" encoding="UTF-8"?>
<svg version="1.1" xmlns="http://www.w3.org/2000/svg" width="593" height="154">
<path d="M0 0 C1.62324523 0.00051984 3.2464911 -0.00000263 4.86973572 -0.00151062 C8.25610876 -0.00142138 11.64224136 0.00891021 15.02856445 0.02709961 C19.3478376 0.04980315 23.66676087 0.05032229 27.98607731 0.04358196 C31.33287106 0.04022537 34.67958645 0.04690347 38.02636528 0.0567112 C39.61821519 0.06053301 41.21007387 0.06172409 42.80192757 0.06012535 C64.20847435 0.05652915 64.20847435 0.05652915 70.58984375 5.36328125 C71.22792969 5.87890625 71.86601562 6.39453125 72.5234375 6.92578125 C76.13044193 10.10894103 76.13044193 10.10894103 76.45341492 13.85954285 C76.48679244 15.39469576 76.50880134 16.93011906 76.5222168 18.46557617 C76.53696548 19.30318481 76.55171417 20.14079346 76.56690979 21.00378418 C76.61153526 23.78376029 76.63968641 26.5635258 76.6640625 29.34375 C76.6734617 30.29301172 76.68286091 31.24227345 76.69254494 32.22030067 C76.74015896 37.24686304 76.7738235 42.27332032 76.79760742 47.30004883 C76.82529387 52.48826651 76.90443204 57.67436943 76.99515057 62.86181164 C77.05501928 66.85363303 77.07487927 70.84495324 77.08411598 74.837183 C77.0956913 76.74902931 77.12252146 78.66084769 77.16504478 80.57225609 C77.47613182 95.43971936 77.47613182 95.43971936 74.2953186 100.06167603 C68.03259442 105.1863502 61.14256065 106.66381244 53.19433594 106.65380859 C52.03205727 106.66388443 52.03205727 106.66388443 50.84629822 106.67416382 C48.29720557 106.69308394 45.74837715 106.69706524 43.19921875 106.69921875 C41.41570938 106.70565181 39.63220105 106.71238055 37.84869385 106.71939087 C34.11313432 106.73134938 30.37766716 106.73507326 26.64208984 106.73388672 C21.87649667 106.73368384 17.11150189 106.76096043 12.34605026 106.79543114 C8.66208221 106.81777061 4.97825643 106.82172208 1.2942276 106.82066727 C-0.46149503 106.82301361 -2.21722216 106.83178212 -3.9728775 106.847332 C-14.54877622 106.93221948 -23.8688213 107.00370189 -32.56407166 100.25495911 C-35.53535776 96.49245245 -35.57353149 93.41593013 -35.54223633 88.81274414 C-35.5558168 87.96333755 -35.56939728 87.11393097 -35.58338928 86.23878479 C-35.62061888 83.4373999 -35.62072357 80.63754758 -35.6171875 77.8359375 C-35.62817802 75.88446965 -35.64021204 73.93300741 -35.65324402 71.98155212 C-35.67414246 67.89353899 -35.67543426 63.80606367 -35.66430664 59.71801758 C-35.65261298 54.48383322 -35.70013959 49.25207512 -35.7637682 44.01833439 C-35.80438738 39.98870902 -35.80813134 35.9596679 -35.80136681 31.9298687 C-35.80357112 30.00054769 -35.81844732 28.07119737 -35.84632301 26.14207649 C-36.03615086 11.30514387 -36.03615086 11.30514387 -33.35385132 6.9225769 C-31.23921841 5.17885173 -29.42136177 4.28767776 -26.84765625 3.36328125 C-26.13427094 3.04092499 -25.42088562 2.71856873 -24.68588257 2.38644409 C-16.83391068 -0.62157532 -8.27350823 -0.05270304 0 0 Z " fill="#F8FCFB" transform="translate(75.84765625,18.63671875)"/>
<path d="M0 0 C0.78890625 -0.00773437 1.5778125 -0.01546875 2.390625 -0.0234375 C9.84224639 0.0017369 9.84224639 0.0017369 12.75 2.25 C13.245 3.735 13.245 3.735 13.75 5.25 C15.07 5.25 16.39 5.25 17.75 5.25 C18.74 7.23 18.74 7.23 19.75 9.25 C19.09 9.58 18.43 9.91 17.75 10.25 C17.440625 11.384375 17.13125 12.51875 16.8125 13.6875 C15.75 17.25 15.75 17.25 12.75 19.25 C12.75 19.91 12.75 20.57 12.75 21.25 C13.74 21.58 14.73 21.91 15.75 22.25 C15.375 24.1875 15.375 24.1875 14.75 26.25 C13.76 26.745 13.76 26.745 12.75 27.25 C12.12672902 28.99392277 12.12672902 28.99392277 11.75 31.125 C11.58757812 31.92550781 11.42515625 32.72601563 11.2578125 33.55078125 C10.39943492 38.11338824 9.55341768 42.67735685 8.75 47.25 C9.08 46.92 9.41 46.59 9.75 46.25 C9.5953125 44.88875 9.5953125 44.88875 9.4375 43.5 C9.78268384 39.91008811 10.0288595 39.57511907 12.625 37.375 C15.75 35.25 15.75 35.25 17.75 35.25 C17.75 31.95 17.75 28.65 17.75 25.25 C18.53375 25.435625 19.3175 25.62125 20.125 25.8125 C22.72089775 26.50962266 22.72089775 26.50962266 24.75 25.25 C24.9665625 26.8896875 24.9665625 26.8896875 25.1875 28.5625 C25.63288104 32.18122987 25.63288104 32.18122987 26.75 35.25 C25.76 35.25 24.77 35.25 23.75 35.25 C24.08 35.91 24.41 36.57 24.75 37.25 C24.79247282 39.92578752 24.79764115 42.57680213 24.75 45.25 C24.75 46.24 24.75 47.23 24.75 48.25 C24.75 48.91 24.75 49.57 24.75 50.25 C17.49 50.58 10.23 50.91 2.75 51.25 C3.74 51.91 4.73 52.57 5.75 53.25 C5.75 54.57 5.75 55.89 5.75 57.25 C6.41 57.25 7.07 57.25 7.75 57.25 C7.75 58.57 7.75 59.89 7.75 61.25 C6.43 61.25 5.11 61.25 3.75 61.25 C3.75 63.56 3.75 65.87 3.75 68.25 C6.225 67.755 6.225 67.755 8.75 67.25 C7.43 66.92 6.11 66.59 4.75 66.25 C4.75 64.93 4.75 63.61 4.75 62.25 C7.225 61.755 7.225 61.755 9.75 61.25 C9.688125 60.5075 9.62625 59.765 9.5625 59 C9.78766419 55.69759194 10.47962413 54.6153916 12.75 52.25 C14.87890625 51.82421875 14.87890625 51.82421875 17.3125 51.9375 C18.18777344 51.97230469 19.06304687 52.00710937 19.96484375 52.04296875 C24.24012898 52.36076695 28.49016163 52.76316133 32.75 53.25 C32.75 59.52 32.75 65.79 32.75 72.25 C31.43 72.25 30.11 72.25 28.75 72.25 C28.75 73.57 28.75 74.89 28.75 76.25 C30.73 76.745 30.73 76.745 32.75 77.25 C32.255 78.735 32.255 78.735 31.75 80.25 C31.17032471 80.23952637 30.59064941 80.22905273 29.9934082 80.21826172 C27.34981679 80.17651385 24.70629495 80.15061462 22.0625 80.125 C21.15048828 80.10824219 20.23847656 80.09148437 19.29882812 80.07421875 C14.68151773 80.04063831 10.93067669 80.01443815 6.75 82.25 C7.70261719 82.31058594 8.65523437 82.37117188 9.63671875 82.43359375 C11.51810547 82.55927734 11.51810547 82.55927734 13.4375 82.6875 C15.29955078 82.80931641 15.29955078 82.80931641 17.19921875 82.93359375 C20.13180337 83.19491317 22.88441617 83.59798379 25.75 84.25 C23.30506983 87.05592657 20.75420037 88.36593244 17.375 89.875 C16.43914062 90.30039063 15.50328125 90.72578125 14.5390625 91.1640625 C3.22777769 95.5681762 -9.28312623 93.77746811 -20.25 89.25 C-22.47590633 88.04987564 -24.27014084 86.83388733 -26.25 85.25 C-24.765 84.755 -24.765 84.755 -23.25 84.25 C-22.59 84.58 -21.93 84.91 -21.25 85.25 C-21.25 84.59 -21.25 83.93 -21.25 83.25 C-13.66 82.92 -6.07 82.59 1.75 82.25 C-0.56 81.59 -2.87 80.93 -5.25 80.25 C-6.6875 76.625 -6.6875 76.625 -7.25 73.25 C-7.87648437 73.16363281 -8.50296875 73.07726562 -9.1484375 72.98828125 C-9.96570313 72.84777344 -10.78296875 72.70726563 -11.625 72.5625 C-12.43710938 72.43488281 -13.24921875 72.30726562 -14.0859375 72.17578125 C-15.15714844 71.71751953 -15.15714844 71.71751953 -16.25 71.25 C-16.91 69.6 -17.57 67.95 -18.25 66.25 C-22.21 66.25 -26.17 66.25 -30.25 66.25 C-30.25 68.23 -30.25 70.21 -30.25 72.25 C-31.9 72.25 -33.55 72.25 -35.25 72.25 C-35.25 65.65 -35.25 59.05 -35.25 52.25 C-32.28 51.755 -32.28 51.755 -29.25 51.25 C-31.89 51.25 -34.53 51.25 -37.25 51.25 C-37.58 51.91 -37.91 52.57 -38.25 53.25 C-40.24954746 53.29254356 -42.25041636 53.29080783 -44.25 53.25 C-46.10580722 51.39419278 -45.55303068 48.55651369 -45.625 46.0625 C-45.5160175 34.17129801 -41.51449246 23.82121589 -33.25 15.25 C-22.9760274 5.25 -22.9760274 5.25 -18.25 5.25 C-17.92 4.26 -17.59 3.27 -17.25 2.25 C-11.46127787 0.30312036 -6.06909836 -0.06069098 0 0 Z " fill="#F3F9F9" transform="translate(97.25,24.75)"/>
<path d="M0 0 C14.85 0 29.7 0 45 0 C46 2 46 2 45 14 C35.76 14.33 26.52 14.66 17 15 C17 18.63 17 22.26 17 26 C25.58 26 34.16 26 43 26 C43.8040721 29.2162884 44.13568524 31.45521622 44.125 34.6875 C44.12886719 35.86892578 44.12886719 35.86892578 44.1328125 37.07421875 C44 39 44 39 43 40 C41.07332493 40.08748207 39.14348139 40.10697334 37.21484375 40.09765625 C36.04501953 40.09443359 34.87519531 40.09121094 33.66992188 40.08789062 C32.43822266 40.07951172 31.20652344 40.07113281 29.9375 40.0625 C28.08415039 40.05573242 28.08415039 40.05573242 26.19335938 40.04882812 C23.12885883 40.03699608 20.06445279 40.02051173 17 40 C17 43.63 17 47.26 17 51 C17.84296631 50.99476318 18.68593262 50.98952637 19.55444336 50.98413086 C22.67227936 50.96712174 25.79009177 50.95456594 28.90795898 50.94506836 C30.25920386 50.94002943 31.61044326 50.93319823 32.96166992 50.92456055 C34.90020434 50.91247581 36.838778 50.90730172 38.77734375 50.90234375 C40.52905884 50.89448853 40.52905884 50.89448853 42.31616211 50.88647461 C45 51 45 51 46 52 C46 56.29 46 60.58 46 65 C30.82 65.33 15.64 65.66 0 66 C-1.33172345 63.3365531 -1.12713338 61.31106985 -1.12939453 58.32861328 C-1.13254669 57.14042999 -1.13569885 55.9522467 -1.13894653 54.72805786 C-1.1369223 53.43850189 -1.13489807 52.14894592 -1.1328125 50.8203125 C-1.13376923 49.50086639 -1.13472595 48.18142029 -1.13571167 46.82199097 C-1.13718732 44.02600945 -1.13503903 41.23005984 -1.13037109 38.43408203 C-1.12468492 34.85402434 -1.12794657 31.2740418 -1.13394356 27.69398689 C-1.13756218 24.94016965 -1.13640441 22.18637012 -1.13381577 19.43255234 C-1.13282579 17.47164613 -1.13585879 15.51073923 -1.13894653 13.54983521 C-1.13579437 12.3553476 -1.13264221 11.16085999 -1.12939453 9.93017578 C-1.12859894 8.87919708 -1.12780334 7.82821838 -1.12698364 6.74539185 C-1 4 -1 4 0 0 Z " fill="#487DF9" transform="translate(271,38)"/>
<path d="M0 0 C3.90410296 3.15650877 6.18409764 6.31688339 8 11 C8.04649906 12.99945939 8.05283274 15.00069795 8 17 C5.58063683 17.16249454 3.17218141 17.28097817 0.75 17.375 C0.06808594 17.42527344 -0.61382812 17.47554687 -1.31640625 17.52734375 C-3.328125 17.5859375 -3.328125 17.5859375 -7 17 C-8.39518832 15.04264788 -9.7322454 13.04219883 -11 11 C-13.73017832 10.20538388 -13.73017832 10.20538388 -16.625 10.5 C-18.06746094 10.54640625 -18.06746094 10.54640625 -19.5390625 10.59375 C-22.17116026 10.78283056 -22.17116026 10.78283056 -24 13 C-24.16681109 16.08347826 -24.16681109 16.08347826 -24 19 C-22.42412109 19.36351562 -22.42412109 19.36351562 -20.81640625 19.734375 C1.93374777 25.11094505 1.93374777 25.11094505 7.8125 33.625 C9.91920102 39.61246605 10.01220689 45.44172438 7.4375 51.3125 C4.43106749 56.55258484 0.36052329 59.20096709 -5.27734375 61.109375 C-15.14030279 63.46903362 -26.0843803 63.16783868 -35 58 C-40.06533261 54.10711328 -42.26117383 50.26031117 -43.4375 44 C-43.623125 42.35 -43.80875 40.7 -44 39 C-38.72 39 -33.44 39 -28 39 C-27.01 40.98 -26.02 42.96 -25 45 C-20.7863742 47.80908387 -16.95250658 47.69707949 -12 47 C-9.36483958 45.20808542 -9.36483958 45.20808542 -8 43 C-8.80267999 40.47234431 -8.80267999 40.47234431 -11 38 C-14.30935246 36.5926802 -17.75527327 35.82004502 -21.25 35 C-28.23993078 33.33249918 -33.476357 31.71887382 -39 27 C-41.82099114 22.17701515 -42.94036879 17.53655332 -42 12 C-40.09797629 6.19721581 -37.13979999 2.39420754 -32 -1 C-21.90007625 -6.07040706 -9.74716994 -5.59323584 0 0 Z " fill="#FCFCFC" transform="translate(443,42)"/>
<path d="M0 0 C2.05482923 -0.01700978 4.10796118 -0.06083882 6.16235352 -0.10522461 C15.57376706 -0.16511123 22.61319635 1.00605876 30.53149414 6.17016602 C35.19937766 10.83804954 37.20126347 14.69432129 37.65649414 21.29516602 C37.81118164 23.24422852 37.81118164 23.24422852 37.96899414 25.23266602 C37.86268767 30.7287108 35.73549142 35.06837272 32.00805664 39.06079102 C25.74465088 44.69512109 20.56577629 45.58757955 12.34399414 45.42016602 C9.47711914 45.37891602 6.61024414 45.33766602 3.65649414 45.29516602 C3.65649414 51.89516602 3.65649414 58.49516602 3.65649414 65.29516602 C1.03711914 65.48079102 -1.58225586 65.66641602 -4.28100586 65.85766602 C-5.10721436 65.91897705 -5.93342285 65.98028809 -6.78466797 66.04345703 C-8.63541252 66.16671713 -10.48971108 66.23276901 -12.34350586 66.29516602 C-14.14613108 64.4925408 -13.47119289 61.75139592 -13.47290039 59.32250977 C-13.47605255 58.04448486 -13.47920471 56.76645996 -13.48245239 55.44970703 C-13.48066261 54.04402635 -13.47861166 52.63834597 -13.47631836 51.23266602 C-13.47699144 49.80159488 -13.4779615 48.37052386 -13.47921753 46.93945312 C-13.4806943 43.93659377 -13.47854062 40.93376411 -13.47387695 37.9309082 C-13.46817966 34.0736403 -13.47145878 30.21644198 -13.47744942 26.35917664 C-13.4810556 23.40303011 -13.47991618 20.44690019 -13.47732162 17.49075317 C-13.47665251 16.06812532 -13.47748023 14.64549599 -13.47980118 13.22286987 C-13.4823286 11.23785428 -13.47779628 9.25283343 -13.47290039 7.26782227 C-13.4721048 6.13610596 -13.4713092 5.00438965 -13.4704895 3.83837891 C-13.16455208 -2.28889852 -4.73556525 0.02723826 0 0 Z M3.65649414 15.29516602 C3.65649414 21.23516602 3.65649414 27.17516602 3.65649414 33.29516602 C10.36896692 33.29516602 14.56446661 33.00069011 19.65649414 28.54516602 C21.17674358 25.12460477 20.61050587 22.85680982 19.65649414 19.29516602 C17.89271214 16.98400339 16.53322303 15.70221871 13.90649414 14.48266602 C10.49094905 14.19803726 7.05741156 14.87005134 3.65649414 15.29516602 Z " fill="#4A7FF6" transform="translate(218.343505859375,37.704833984375)"/>
<path d="M0 0 C0.95708359 0.00222061 1.91416718 0.00444122 2.9002533 0.00672913 C3.98129837 0.00680466 5.06234344 0.00688019 6.17614746 0.00695801 C7.94018166 0.01469994 7.94018166 0.01469994 9.73985291 0.02259827 C10.93702438 0.02401321 12.13419586 0.02542816 13.36764526 0.02688599 C17.20918732 0.03250472 21.05067208 0.04506041 24.89219666 0.05775452 C27.48920102 0.0627671 30.0862063 0.06733043 32.68321228 0.07142639 C39.06539344 0.08248024 45.44754096 0.0992366 51.82969666 0.12025452 C53.15464829 4.90480209 53.41392986 9.3675549 51.82969666 14.12025452 C45.55969666 14.45025452 39.28969666 14.78025452 32.82969666 15.12025452 C32.82969666 31.62025452 32.82969666 48.12025452 32.82969666 65.12025452 C29.82655918 66.62182326 27.03902143 66.21306656 23.70469666 66.18275452 C22.42336853 66.17373108 21.14204041 66.16470764 19.82188416 66.15541077 C18.83446228 66.1438092 17.84704041 66.13220764 16.82969666 66.12025452 C15.62082375 63.70250871 15.70910323 62.18694387 15.71617126 59.48695374 C15.7162468 58.5261087 15.71632233 57.56526367 15.71640015 56.57530212 C15.72156143 55.53568329 15.72672272 54.49606445 15.73204041 53.42494202 C15.73345535 52.36236176 15.7348703 51.29978149 15.73632812 50.20500183 C15.74193832 46.80172443 15.75449257 43.39851213 15.76719666 39.99525452 C15.77221034 37.69187005 15.77677348 35.38848455 15.78086853 33.08509827 C15.79191106 27.43012803 15.80865914 21.77519592 15.82969666 16.12025452 C12.01958723 15.06215115 8.60313478 15.05458093 4.64219666 15.12025452 C2.37167155 15.15766791 0.1000437 15.16724747 -2.17030334 15.12025452 C-3.17030334 14.12025452 -3.17030334 14.12025452 -3.30311584 11.21400452 C-3.30053772 10.02806702 -3.29795959 8.84212952 -3.29530334 7.62025452 C-3.29788147 6.43431702 -3.30045959 5.24837952 -3.30311584 4.02650452 C-3.12702697 0.17326569 -3.12702697 0.17326569 0 0 Z " fill="#497EF9" transform="translate(334.17030334472656,37.87974548339844)"/>
<path d="M0 0 C0.78890625 -0.00773437 1.5778125 -0.01546875 2.390625 -0.0234375 C9.42907488 0.00034105 9.42907488 0.00034105 12.75 2.25 C12.75 3.57 12.75 4.89 12.75 6.25 C9.4231134 7.9134433 5.71638428 7.39244098 2.0625 7.375 C0.87624023 7.38080078 0.87624023 7.38080078 -0.33398438 7.38671875 C-5.07689943 7.37888569 -9.57269057 7.03894376 -14.25 6.25 C-13.940625 7.178125 -13.940625 7.178125 -13.625 8.125 C-13.50125 8.82625 -13.3775 9.5275 -13.25 10.25 C-13.91 10.91 -14.57 11.57 -15.25 12.25 C-15.89767793 14.82061311 -15.89767793 14.82061311 -16.25 17.25 C-18.23 17.91 -20.21 18.57 -22.25 19.25 C-21.92 20.9 -21.59 22.55 -21.25 24.25 C-18.48735711 24.84732819 -16.08967231 25.25 -13.25 25.25 C-13.6699479 27.76968738 -14.0530807 29.88685986 -15.27734375 32.14453125 C-17.50245443 36.96113631 -16.542299 43.24234136 -15.25 48.25 C-17.23 48.25 -19.21 48.25 -21.25 48.25 C-21.25 48.91 -21.25 49.57 -21.25 50.25 C-22.39339844 50.29898438 -23.53679687 50.34796875 -24.71484375 50.3984375 C-26.20575473 50.47345189 -27.69663892 50.54900028 -29.1875 50.625 C-30.31961914 50.67140625 -30.31961914 50.67140625 -31.47460938 50.71875 C-33.40507395 50.8226315 -35.32942081 51.02895614 -37.25 51.25 C-37.58 51.91 -37.91 52.57 -38.25 53.25 C-40.24954746 53.29254356 -42.25041636 53.29080783 -44.25 53.25 C-46.10580722 51.39419278 -45.55303068 48.55651369 -45.625 46.0625 C-45.5160175 34.17129801 -41.51449246 23.82121589 -33.25 15.25 C-22.9760274 5.25 -22.9760274 5.25 -18.25 5.25 C-17.92 4.26 -17.59 3.27 -17.25 2.25 C-11.46127787 0.30312036 -6.06909836 -0.06069098 0 0 Z " fill="#E6F8E6" transform="translate(97.25,24.75)"/>
<path d="M0 0 C5.28 0 10.56 0 16 0 C16 21.12 16 42.24 16 64 C10.72 64 5.44 64 0 64 C0 42.88 0 21.76 0 0 Z " fill="#FCFCFD" transform="translate(468,39)"/>
<path d="M0 0 C0.66 1.32 1.32 2.64 2 4 C1.34 4.33 0.68 4.66 0 5 C-0.309375 6.134375 -0.61875 7.26875 -0.9375 8.4375 C-2 12 -2 12 -5 14 C-5.99 13.34 -6.98 12.68 -8 12 C-8 12.66 -8 13.32 -8 14 C-9.32 14 -10.64 14 -12 14 C-12.33 15.216875 -12.66 16.43375 -13 17.6875 C-14.65218564 22.18112568 -17.08406882 23.87999427 -21.16015625 26.1875 C-23 27 -23 27 -25 27 C-26.25664978 29.90600261 -27 31.79604584 -27 35 C-26.608125 34.484375 -26.21625 33.96875 -25.8125 33.4375 C-24 32 -24 32 -21.4375 32.1875 C-19 33 -19 33 -17 35 C-16.43479997 37.65537372 -16.26211802 40.29144713 -16 43 C-18.45275141 44.2263757 -20.0505781 44.11415314 -22.7890625 44.09765625 C-23.73007813 44.09443359 -24.67109375 44.09121094 -25.640625 44.08789062 C-26.62546875 44.07951172 -27.6103125 44.07113281 -28.625 44.0625 C-30.11386719 44.05573242 -30.11386719 44.05573242 -31.6328125 44.04882812 C-34.0886016 44.03702145 -36.54427104 44.020554 -39 44 C-39 43.67 -39 43.34 -39 43 C-37.02 43 -35.04 43 -33 43 C-33.495 42.0409375 -33.495 42.0409375 -34 41.0625 C-35.33461917 36.97522878 -35.52818143 33.26428832 -35 29 C-33.5625 26.1875 -33.5625 26.1875 -32 24 C-31.30420546 21.80869466 -31.30420546 21.80869466 -31 20 C-31.928125 20.20625 -32.85625 20.4125 -33.8125 20.625 C-37 21 -37 21 -40 19 C-40.1875 16.375 -40.1875 16.375 -40 14 C-38.02 13.34 -36.04 12.68 -34 12 C-34.061875 10.88625 -34.061875 10.88625 -34.125 9.75 C-33.99470184 6.88344047 -33.36229836 5.46916578 -32 3 C-32 2.34 -32 1.68 -32 1 C-31.25838623 1.00523682 -30.51677246 1.01047363 -29.75268555 1.01586914 C-26.39763229 1.03663614 -23.04259256 1.0496593 -19.6875 1.0625 C-18.52025391 1.07087891 -17.35300781 1.07925781 -16.15039062 1.08789062 C-15.03212891 1.09111328 -13.91386719 1.09433594 -12.76171875 1.09765625 C-11.2142395 1.10551147 -11.2142395 1.10551147 -9.63549805 1.11352539 C-6.19591174 0.9653635 -3.53057448 0 0 0 Z " fill="#F4F3E9" transform="translate(115,30)"/>
<path d="M0 0 C3 0 3 0 5.25 2 C6.172547 2.9945777 7.0885744 3.99522084 8 5 C8.55042969 5.55816406 9.10085937 6.11632813 9.66796875 6.69140625 C20.84676517 18.51181129 23.43684092 31.2979957 23 47 C24.485 47.495 24.485 47.495 26 48 C25.38193878 50.76915662 24.61377678 52.81701067 23.375 55.4375 C21.12706624 61.16050045 22.24610231 67.04148329 23 73 C20.03 73 17.06 73 14 73 C14 72.34 14 71.68 14 71 C14.66 71 15.32 71 16 71 C15.51104248 70.19127441 15.51104248 70.19127441 15.01220703 69.36621094 C13.77029116 66.46301541 13.77251466 64.29356299 13.8046875 61.140625 C13.81113281 60.02558594 13.81757813 58.91054687 13.82421875 57.76171875 C13.84097656 56.60285156 13.85773438 55.44398437 13.875 54.25 C13.88402344 53.07566406 13.89304688 51.90132812 13.90234375 50.69140625 C13.92589937 47.79406464 13.95879348 44.89713559 14 42 C12.68 41.34 11.36 40.68 10 40 C10.33 38.68 10.66 37.36 11 36 C10.34 36 9.68 36 9 36 C9.495 33.03 9.495 33.03 10 30 C11.32 29.67 12.64 29.34 14 29 C14 29.99 14 30.98 14 32 C14.66 32 15.32 32 16 32 C13.70124473 21.71033355 8.86743423 13.62688445 0.3828125 7.25390625 C-1 6 -1 6 -2 3 C-1.34 2.01 -0.68 1.02 0 0 Z " fill="#C3EFE8" transform="translate(119,32)"/>
<path d="M0 0 C2 2 2 2 2.125 5.125 C2.08375 6.07375 2.0425 7.0225 2 8 C-2.455 8.495 -2.455 8.495 -7 9 C-4.23735711 9.59732819 -1.83967231 10 1 10 C1.268125 10.61875 1.53625 11.2375 1.8125 11.875 C2.95556848 14.2995233 2.95556848 14.2995233 6 16 C5.67 16.66 5.34 17.32 5 18 C7.97 18 10.94 18 14 18 C14.495 18.99 14.495 18.99 15 20 C14.0625 22.125 14.0625 22.125 13 24 C14.42892578 24.09087891 14.42892578 24.09087891 15.88671875 24.18359375 C17.14097656 24.26738281 18.39523438 24.35117188 19.6875 24.4375 C20.92886719 24.51871094 22.17023438 24.59992188 23.44921875 24.68359375 C26.38180337 24.94491317 29.13441617 25.34798379 32 26 C29.55506983 28.80592657 27.00420037 30.11593244 23.625 31.625 C22.22121094 32.26308594 22.22121094 32.26308594 20.7890625 32.9140625 C9.47777769 37.3181762 -3.03312623 35.52746811 -14 31 C-16.22590633 29.79987564 -18.02014084 28.58388733 -20 27 C-19.01 26.67 -18.02 26.34 -17 26 C-16.34 26.33 -15.68 26.66 -15 27 C-15 26.34 -15 25.68 -15 25 C-7.41 24.67 0.18 24.34 8 24 C5.69 23.34 3.38 22.68 1 22 C-0.4375 18.375 -0.4375 18.375 -1 15 C-1.62648438 14.89042969 -2.25296875 14.78085938 -2.8984375 14.66796875 C-3.71570313 14.50941406 -4.53296875 14.35085937 -5.375 14.1875 C-6.59316406 13.96126953 -6.59316406 13.96126953 -7.8359375 13.73046875 C-10 13 -10 13 -12 10 C-12.4375 6.5625 -12.4375 6.5625 -12 3 C-8.30406585 -1.47992018 -5.433961 -1.43538592 0 0 Z " fill="#8ECBCC" transform="translate(91,83)"/>
<path d="M0 0 C0.33 0.66 0.66 1.32 1 2 C1.66 2 2.32 2 3 2 C3 1.34 3 0.68 3 0 C3.66 0 4.32 0 5 0 C5.103125 0.639375 5.20625 1.27875 5.3125 1.9375 C5.6528125 2.9584375 5.6528125 2.9584375 6 4 C6.99 4.33 7.98 4.66 9 5 C8.625 6.9375 8.625 6.9375 8 9 C7.01 9.495 7.01 9.495 6 10 C5.37672902 11.74392277 5.37672902 11.74392277 5 13.875 C4.75636719 15.07576172 4.75636719 15.07576172 4.5078125 16.30078125 C3.64943492 20.86338824 2.80341768 25.42735685 2 30 C2.33 29.67 2.66 29.34 3 29 C2.896875 28.0925 2.79375 27.185 2.6875 26.25 C3.03268384 22.66008811 3.2788595 22.32511907 5.875 20.125 C9 18 9 18 11 18 C11 14.7 11 11.4 11 8 C11.78375 8.185625 12.5675 8.37125 13.375 8.5625 C15.97089775 9.25962266 15.97089775 9.25962266 18 8 C18.144375 9.093125 18.28875 10.18625 18.4375 11.3125 C18.88288104 14.93122987 18.88288104 14.93122987 20 18 C19.01 18 18.02 18 17 18 C17.495 18.99 17.495 18.99 18 20 C18.04247282 22.67578752 18.04764115 25.32680213 18 28 C18 28.99 18 29.98 18 31 C18 31.33 18 31.66 18 32 C12.06 32 6.12 32 0 32 C-0.66 29.36 -1.32 26.72 -2 24 C-2 26.64 -2 29.28 -2 32 C-3.65 32 -5.3 32 -7 32 C-6.34 31.67 -5.68 31.34 -5 31 C-5.99 28.03 -6.98 25.06 -8 22 C-10.3015411 21.22197813 -10.3015411 21.22197813 -13 21 C-15.30504044 22.33153266 -15.30504044 22.33153266 -17 24 C-16.73770575 20.24044909 -16.27437625 18.33893537 -13.875 15.375 C-11.58139867 13.48028586 -9.96467679 12.44393217 -7.375 11.1875 C-4.27648013 9.55740911 -3.31586876 8.09322668 -2.125 4.8125 C-1.75375 3.554375 -1.3825 2.29625 -1 1 C-0.67 0.67 -0.34 0.34 0 0 Z " fill="#0467A1" transform="translate(104,42)"/>
<path d="M0 0 C3.63 0 7.26 0 11 0 C11.33 7.26 11.66 14.52 12 22 C13.32 21.34 14.64 20.68 16 20 C17.99110401 19.61709538 19.99100513 19.27395385 22 19 C22.66 19.99 23.32 20.98 24 22 C24.99 21.34 25.98 20.68 27 20 C27 20.66 27 21.32 27 22 C28.65 21.67 30.3 21.34 32 21 C31.67 19.02 31.34 17.04 31 15 C32.62752231 15.25523874 34.25203196 15.52974494 35.875 15.8125 C37.23238281 16.03873047 37.23238281 16.03873047 38.6171875 16.26953125 C41 17 41 17 43 20 C43.125 22.6875 43.125 22.6875 43 25 C44.670625 25.185625 44.670625 25.185625 46.375 25.375 C50 26 50 26 52 28 C43.75 28 35.5 28 27 28 C27 28.66 27 29.32 27 30 C15.68490113 30.2012567 15.68490113 30.2012567 11 29 C10.67 28.34 10.34 27.68 10 27 C8.10466658 26.53476937 8.10466658 26.53476937 5.9375 26.375 C4.638125 26.25125 3.33875 26.1275 2 26 C2.03480469 24.37191406 2.03480469 24.37191406 2.0703125 22.7109375 C2.0890827 21.26563193 2.10728156 19.82031885 2.125 18.375 C2.14175781 17.66214844 2.15851562 16.94929688 2.17578125 16.21484375 C2.21720108 11.70008249 1.56020643 8.28749641 0 4 C0 2.68 0 1.36 0 0 Z " fill="#E1F6FA" transform="translate(49,80)"/>
<path d="M0 0 C0.78890625 -0.00773437 1.5778125 -0.01546875 2.390625 -0.0234375 C9.42907488 0.00034105 9.42907488 0.00034105 12.75 2.25 C12.75 3.57 12.75 4.89 12.75 6.25 C9.4231134 7.9134433 5.71638428 7.39244098 2.0625 7.375 C0.87624023 7.38080078 0.87624023 7.38080078 -0.33398438 7.38671875 C-5.07689943 7.37888569 -9.57269057 7.03894376 -14.25 6.25 C-14.32089844 6.85457031 -14.39179687 7.45914063 -14.46484375 8.08203125 C-15.55047314 11.07966465 -17.00547337 11.51041623 -19.8125 12.9375 C-28.48803089 17.90733984 -33.76735153 24.58911103 -37.3515625 33.8984375 C-38.97252193 39.94532094 -39.1561706 46.00607993 -39.25 52.25 C-40.90614657 52.63218767 -42.57457024 52.96395102 -44.25 53.25 C-46.10580722 51.39419278 -45.55303068 48.55651369 -45.625 46.0625 C-45.5160175 34.17129801 -41.51449246 23.82121589 -33.25 15.25 C-22.9760274 5.25 -22.9760274 5.25 -18.25 5.25 C-17.92 4.26 -17.59 3.27 -17.25 2.25 C-11.46127787 0.30312036 -6.06909836 -0.06069098 0 0 Z " fill="#CFF7F6" transform="translate(97.25,24.75)"/>
<path d="M0 0 C0.99 0.33 1.98 0.66 3 1 C2.979375 1.99 2.95875 2.98 2.9375 4 C3.46818487 7.90209461 5.1894345 9.31532936 8.1875 11.75 C14.26547246 16.74227403 18.68955321 23.27384168 19.875 31.1875 C19.91625 32.115625 19.9575 33.04375 20 34 C19.34 34 18.68 34 18 34 C17.67 33.34 17.34 32.68 17 32 C16.01 32 15.02 32 14 32 C13.67 33.98 13.34 35.96 13 38 C13.66 38 14.32 38 15 38 C15.12375 38.78375 15.2475 39.5675 15.375 40.375 C15.79117993 43.14057822 15.79117993 43.14057822 18 45 C9.80743982 45.63019694 9.80743982 45.63019694 6.4375 43 C5.963125 42.34 5.48875 41.68 5 41 C5.495 40.505 5.495 40.505 6 40 C6.07205511 38.31391034 6.08386068 36.62499341 6.0625 34.9375 C6.04896484 33.55884766 6.04896484 33.55884766 6.03515625 32.15234375 C6.02355469 31.44207031 6.01195313 30.73179688 6 30 C6.99 30 7.98 30 9 30 C8.34 29.01 7.68 28.02 7 27 C6.60986284 25.0103005 6.26797351 23.00980131 6 21 C5.34 21.33 4.68 21.66 4 22 C3.01 21.67 2.02 21.34 1 21 C0.99742188 21.60328125 0.99484375 22.2065625 0.9921875 22.828125 C0.87050918 25.3428102 0.66260701 27.56764516 0 30 C-3 32.5 -3 32.5 -6 34 C-7.41577477 35.18424326 -7.41577477 35.18424326 -7.0625 38.5625 C-7.041875 39.696875 -7.02125 40.83125 -7 42 C-7.66 42 -8.32 42 -9 42 C-9.17151487 36.94031127 -9.03461345 33.66764263 -7 29 C-6.855625 27.783125 -6.71125 26.56625 -6.5625 25.3125 C-6.376875 24.219375 -6.19125 23.12625 -6 22 C-5.01 21.34 -4.02 20.68 -3 20 C-2.67 19.01 -2.34 18.02 -2 17 C-3.32 16.67 -4.64 16.34 -6 16 C-5 13 -5 13 -2 11 C-0.63071479 7.10834729 0 4.14156548 0 0 Z " fill="#EEFCEE" transform="translate(115,30)"/>
<path d="M0 0 C1.20462891 0.05607422 1.20462891 0.05607422 2.43359375 0.11328125 C3.30886719 0.14808594 4.18414062 0.18289062 5.0859375 0.21875 C9.36122273 0.5365482 13.61125538 0.93894258 17.87109375 1.42578125 C17.87109375 7.69578125 17.87109375 13.96578125 17.87109375 20.42578125 C16.55109375 20.42578125 15.23109375 20.42578125 13.87109375 20.42578125 C13.87109375 21.74578125 13.87109375 23.06578125 13.87109375 24.42578125 C15.19109375 24.75578125 16.51109375 25.08578125 17.87109375 25.42578125 C17.54109375 26.41578125 17.21109375 27.40578125 16.87109375 28.42578125 C11.59109375 28.42578125 6.31109375 28.42578125 0.87109375 28.42578125 C0.87109375 27.10578125 0.87109375 25.78578125 0.87109375 24.42578125 C2.85677083 23.9375 4.84244792 23.44921875 6.828125 22.9609375 C8.52792577 22.5156742 10.20411329 21.9814414 11.87109375 21.42578125 C11.87109375 20.43578125 11.87109375 19.44578125 11.87109375 18.42578125 C11.23171875 18.75578125 10.59234375 19.08578125 9.93359375 19.42578125 C5.9173962 20.7371927 2.06633276 20.96000644 -2.12890625 20.42578125 C-3.11890625 19.76578125 -4.10890625 19.10578125 -5.12890625 18.42578125 C-4.63390625 16.94078125 -4.63390625 16.94078125 -4.12890625 15.42578125 C-0.82890625 15.75578125 2.47109375 16.08578125 5.87109375 16.42578125 C4.52394342 13.73148059 3.11818883 13.50645531 0.37109375 12.36328125 C-4.04171279 10.51297471 -4.04171279 10.51297471 -5.12890625 9.42578125 C-5.44686912 6.48462466 -5.38228723 4.86819248 -3.8984375 2.27734375 C-2.12890625 0.42578125 -2.12890625 0.42578125 0 0 Z " fill="#E8F7E0" transform="translate(112.12890625,76.57421875)"/>
<path d="M0 0 C1.83984375 0.20703125 1.83984375 0.20703125 4 1 C5.37890625 3.07421875 5.37890625 3.07421875 6.5625 5.6875 C6.98015625 6.58855469 7.3978125 7.48960938 7.828125 8.41796875 C8.21484375 9.27003906 8.6015625 10.12210938 9 11 C9.598125 12.155 10.19625 13.31 10.8125 14.5 C12 17 12 17 12 19 C11.46890625 19.21914063 10.9378125 19.43828125 10.390625 19.6640625 C5.3621861 21.92135441 2.47351339 23.85509216 0 29 C-0.57058634 31.70175072 -0.80908192 34.23168779 -1 37 C-0.401875 36.649375 0.19625 36.29875 0.8125 35.9375 C3 35 3 35 6 36 C5.67 36.99 5.34 37.98 5 39 C5.99 39 6.98 39 8 39 C7.505 36.525 7.505 36.525 7 34 C7.66 34 8.32 34 9 34 C11 37 11 37 11 41 C4.07 41 -2.86 41 -10 41 C-10 40.67 -10 40.34 -10 40 C-8.02 40 -6.04 40 -4 40 C-4.495 39.0409375 -4.495 39.0409375 -5 38.0625 C-6.33461917 33.97522878 -6.52818143 30.26428832 -6 26 C-4.5625 23.1875 -4.5625 23.1875 -3 21 C-2.30420546 18.80869466 -2.30420546 18.80869466 -2 17 C-2.928125 17.20625 -3.85625 17.4125 -4.8125 17.625 C-8 18 -8 18 -11 16 C-11.1875 13.375 -11.1875 13.375 -11 11 C-10.05125 10.7525 -9.1025 10.505 -8.125 10.25 C-4.9323374 9.32970141 -4.9323374 9.32970141 -3.75 7 C-3.5025 6.34 -3.255 5.68 -3 5 C-2.34 4.34 -1.68 3.68 -1 3 C-0.34 3.33 0.32 3.66 1 4 C0.67 2.68 0.34 1.36 0 0 Z " fill="#ED681C" transform="translate(86,33)"/>
<path d="M0 0 C0.78375 0.185625 1.5675 0.37125 2.375 0.5625 C4.97089775 1.25962266 4.97089775 1.25962266 7 0 C7.144375 1.093125 7.28875 2.18625 7.4375 3.3125 C7.88288104 6.93122987 7.88288104 6.93122987 9 10 C8.01 10 7.02 10 6 10 C6.33 10.66 6.66 11.32 7 12 C7.23188406 19.30434783 7.23188406 19.30434783 6 23 C2.04 23 -1.92 23 -6 23 C-6 21.35 -6 19.7 -6 18 C-6.66 18 -7.32 18 -8 18 C-7.65978036 14.82461668 -6.97533396 13.97723135 -4.5625 11.75 C-2 10 -2 10 0 10 C0 6.7 0 3.4 0 0 Z " fill="#0BA7CB" transform="translate(115,50)"/>
<path d="M0 0 C10.71428571 -0.28571429 10.71428571 -0.28571429 15 2 C16.44755245 8.27272727 16.44755245 8.27272727 14.5 11.4375 C11.20272974 13.49829391 8.81486176 13.2934509 5 13 C5 14.98 5 16.96 5 19 C3.35 19 1.7 19 0 19 C0 12.73 0 6.46 0 0 Z " fill="#246C98" transform="translate(62,78)"/>
<path d="M0 0 C3.96 0 7.92 0 12 0 C11 4 11 4 9.375 7.4375 C7.12706624 13.16050045 8.24610231 19.04148329 9 25 C6.03 25 3.06 25 0 25 C0 24.34 0 23.68 0 23 C0.66 23 1.32 23 2 23 C1.67402832 22.4337793 1.34805664 21.86755859 1.01220703 21.28417969 C-0.09727314 18.78049023 -0.23207325 17.17342082 -0.1953125 14.453125 C-0.18886719 13.60878906 -0.18242187 12.76445313 -0.17578125 11.89453125 C-0.15902344 11.02183594 -0.14226562 10.14914063 -0.125 9.25 C-0.11597656 8.36183594 -0.10695312 7.47367187 -0.09765625 6.55859375 C-0.0741475 4.37227989 -0.03827811 2.18610516 0 0 Z " fill="#96D6F0" transform="translate(133,80)"/>
<path d="M0 0 C3.3 0 6.6 0 10 0 C10 8.25 10 16.5 10 25 C7.36 25 4.72 25 2 25 C2.02320313 23.98679687 2.04640625 22.97359375 2.0703125 21.9296875 C2.0890841 20.57813242 2.1072828 19.22656931 2.125 17.875 C2.14175781 17.20984375 2.15851562 16.5446875 2.17578125 15.859375 C2.21880715 11.47073361 1.47572853 8.10182811 0 4 C0 2.68 0 1.36 0 0 Z " fill="#6AC7ED" transform="translate(49,80)"/>
<path d="M0 0 C0.33 1.32 0.66 2.64 1 4 C4.3 4.33 7.6 4.66 11 5 C10.67 7.31 10.34 9.62 10 12 C11.32 12.33 12.64 12.66 14 13 C13.2884375 13.99 13.2884375 13.99 12.5625 15 C10.58682146 18.7933028 10.35972537 21.75524068 10 26 C10.598125 25.649375 11.19625 25.29875 11.8125 24.9375 C14 24 14 24 17 25 C16.67 25.99 16.34 26.98 16 28 C16.99 28 17.98 28 19 28 C18.505 25.525 18.505 25.525 18 23 C18.66 23 19.32 23 20 23 C22 26 22 26 22 30 C15.07 30 8.14 30 1 30 C1 29.67 1 29.34 1 29 C2.98 29 4.96 29 7 29 C6.67 28.360625 6.34 27.72125 6 27.0625 C4.66538083 22.97522878 4.47181857 19.26428832 5 15 C6.4375 12.1875 6.4375 12.1875 8 10 C8.69579454 7.80869466 8.69579454 7.80869466 9 6 C8.071875 6.20625 7.14375 6.4125 6.1875 6.625 C3 7 3 7 0 5 C-0.1875 2.375 -0.1875 2.375 0 0 Z " fill="#EA7826" transform="translate(75,44)"/>
<path d="M0 0 C0.66 0 1.32 0 2 0 C2 3.63 2 7.26 2 11 C2.84296631 10.99476318 3.68593262 10.98952637 4.55444336 10.98413086 C7.67227936 10.96712174 10.79009177 10.95456594 13.90795898 10.94506836 C15.25920386 10.94002943 16.61044326 10.93319823 17.96166992 10.92456055 C19.90020434 10.91247581 21.838778 10.90730172 23.77734375 10.90234375 C25.52905884 10.89448853 25.52905884 10.89448853 27.31616211 10.88647461 C30 11 30 11 31 12 C31 16.29 31 20.58 31 25 C15.82 25.33 0.64 25.66 -15 26 C-16.60670684 22.78658631 -15.82510855 19.37041032 -15.5625 15.875 C-15.51029297 15.12089844 -15.45808594 14.36679688 -15.40429688 13.58984375 C-15.27454996 11.7262063 -15.13792512 9.86305004 -15 8 C-14.67 8 -14.34 8 -14 8 C-14 13.28 -14 18.56 -14 24 C-0.14 23.67 13.72 23.34 28 23 C28.33 19.7 28.66 16.4 29 13 C19.43 13 9.86 13 0 13 C0 8.71 0 4.42 0 0 Z " fill="#4E73CA" transform="translate(286,78)"/>
<path d="M0 0 C0.66 0.33 1.32 0.66 2 1 C2 1.99 2 2.98 2 4 C-0.64 4 -3.28 4 -6 4 C-6.33 4.99 -6.66 5.98 -7 7 C-6.0925 7.103125 -5.185 7.20625 -4.25 7.3125 C-0.92032549 8.01685422 0.69577196 8.51852364 3 11 C3.4375 13.5 3.4375 13.5 3 16 C1.37717542 18.13154701 0.51399547 18.91340294 -2.15625 19.36328125 C-2.9296875 19.34652344 -3.703125 19.32976562 -4.5 19.3125 C-5.2734375 19.30863281 -6.046875 19.30476563 -6.84375 19.30078125 C-9 19 -9 19 -12 17 C-11.505 15.515 -11.505 15.515 -11 14 C-7.7 14.33 -4.4 14.66 -1 15 C-2.34715033 12.30569934 -3.75290492 12.08067406 -6.5 10.9375 C-10.91280654 9.08719346 -10.91280654 9.08719346 -12 8 C-12.3125 5.625 -12.3125 5.625 -12 3 C-8.70534067 -0.9810467 -4.76547403 -0.30744994 0 0 Z " fill="#559B44" transform="translate(119,78)"/>
<path d="M0 0 C-3.10275738 1.03425246 -5.56237833 1.02198576 -8.80078125 0.93408203 C-23.01685042 0.56272098 -32.50946705 3.95834892 -43.1875 13.5625 C-50.75488649 21.38717763 -53.87646984 31.66553461 -54.5625 42.25 C-54.68818359 44.14492187 -54.68818359 44.14492187 -54.81640625 46.078125 C-54.87699219 47.04234375 -54.93757813 48.0065625 -55 49 C-55.66 49 -56.32 49 -57 49 C-57.89900089 35.85460918 -55.69768085 24.24357874 -46.88671875 13.9609375 C-35.20246186 1.81705145 -16.95287395 -8.10508831 0 0 Z " fill="#4AA0AF" transform="translate(109,28)"/>
<path d="M0 0 C0.02708567 1.60407328 0.04643483 3.2082785 0.0625 4.8125 C0.07410156 5.70582031 0.08570313 6.59914063 0.09765625 7.51953125 C0 10 0 10 -1 13 C-7.27 13.33 -13.54 13.66 -20 14 C-20 30.5 -20 47 -20 64 C-23.00313748 65.50156874 -25.79067522 65.09281204 -29.125 65.0625 C-31.04699219 65.04896484 -31.04699219 65.04896484 -33.0078125 65.03515625 C-33.99523437 65.02355469 -34.98265625 65.01195313 -36 65 C-37.56544436 61.86911129 -37.00148591 58.57285977 -36.87890625 55.1484375 C-36.85529526 54.37440582 -36.83168427 53.60037415 -36.80735779 52.80288696 C-36.73068562 50.3267397 -36.64667684 47.85090241 -36.5625 45.375 C-36.50928285 43.69793192 -36.45654243 42.02084863 -36.40429688 40.34375 C-36.27506572 36.22896977 -36.13925354 32.11445275 -36 28 C-35.67 28 -35.34 28 -35 28 C-35 39.55 -35 51.1 -35 63 C-30.38 63 -25.76 63 -21 63 C-21 46.17 -21 29.34 -21 12 C-14.73 12 -8.46 12 -2 12 C-2 8.37 -2 4.74 -2 1 C-4.31 1 -6.62 1 -9 1 C-9 0.67 -9 0.34 -9 0 C-3.375 -1.125 -3.375 -1.125 0 0 Z " fill="#5174C6" transform="translate(387,39)"/>
<path d="M0 0 C2 2 2 2 2.125 5.125 C2.08375 6.07375 2.0425 7.0225 2 8 C-2.455 8.495 -2.455 8.495 -7 9 C-4.23735711 9.59732819 -1.83967231 10 1 10 C1 10.99 1 11.98 1 13 C-2.09173752 14.54586876 -4.59429552 14.29359521 -8 14 C-10.4375 12.4375 -10.4375 12.4375 -12 10 C-12.5625 6.5 -12.5625 6.5 -12 3 C-8.30406585 -1.47992018 -5.433961 -1.43538592 0 0 Z " fill="#1C638B" transform="translate(91,83)"/>
<path d="M0 0 C0 1.65 0 3.3 0 5 C0.66 5 1.32 5 2 5 C3.74849671 9.3039919 5.3770361 13.64750591 7 18 C6 19 6 19 3.49609375 19.09765625 C2.48675781 19.08605469 1.47742188 19.07445313 0.4375 19.0625 C-0.57441406 19.05347656 -1.58632812 19.04445313 -2.62890625 19.03515625 C-3.41136719 19.02355469 -4.19382812 19.01195313 -5 19 C-5.75554027 13.99454569 -6.33663504 9.90099513 -5 5 C-4.87625 4.278125 -4.7525 3.55625 -4.625 2.8125 C-4.41875 2.214375 -4.2125 1.61625 -4 1 C-1 0 -1 0 0 0 Z " fill="#28B6D3" transform="translate(70,55)"/>
<path d="M0 0 C2.97 0.495 2.97 0.495 6 1 C6.29296875 7.0546875 6.29296875 7.0546875 6 9 C5.01 9.66 4.02 10.32 3 11 C2.01 10.67 1.02 10.34 0 10 C-0.00257812 10.60328125 -0.00515625 11.2065625 -0.0078125 11.828125 C-0.12949082 14.3428102 -0.33739299 16.56764516 -1 19 C-4 21.5 -4 21.5 -7 23 C-8.41577477 24.18424326 -8.41577477 24.18424326 -8.0625 27.5625 C-8.041875 28.696875 -8.02125 29.83125 -8 31 C-8.66 31 -9.32 31 -10 31 C-10.17151487 25.94031127 -10.03461345 22.66764263 -8 18 C-7.855625 16.783125 -7.71125 15.56625 -7.5625 14.3125 C-7.376875 13.219375 -7.19125 12.12625 -7 11 C-6.01 10.34 -5.02 9.68 -4 9 C-3.64984951 7.33678518 -3.31802943 5.66965451 -3 4 C-1.4375 1.6875 -1.4375 1.6875 0 0 Z " fill="#D4F6FB" transform="translate(116,41)"/>
<path d="M0 0 C1.20076172 0.31324219 1.20076172 0.31324219 2.42578125 0.6328125 C3.23402344 0.83648437 4.04226562 1.04015625 4.875 1.25 C5.48988281 1.41757812 6.10476562 1.58515625 6.73828125 1.7578125 C6.40828125 3.0778125 6.07828125 4.3978125 5.73828125 5.7578125 C5.07828125 5.7578125 4.41828125 5.7578125 3.73828125 5.7578125 C3.73828125 11.0378125 3.73828125 16.3178125 3.73828125 21.7578125 C2.74828125 21.7578125 1.75828125 21.7578125 0.73828125 21.7578125 C-1.07414198 17.738961 -2.59673492 14.14670575 -3.26171875 9.7578125 C-3.92171875 9.7578125 -4.58171875 9.7578125 -5.26171875 9.7578125 C-5.5546875 3.703125 -5.5546875 3.703125 -5.26171875 1.7578125 C-2.26171875 -0.2421875 -2.26171875 -0.2421875 0 0 Z " fill="#F3FBF9" transform="translate(75.26171875,50.2421875)"/>
<path d="M0 0 C0.33 0 0.66 0 1 0 C1.18276122 4.66041121 0.76719039 7.73795259 -1 12 C-1.45395602 14.66387381 -1.726319 17.30880349 -2 20 C-1.67 18.68 -1.34 17.36 -1 16 C-0.34 16 0.32 16 1 16 C1 17.65 1 19.3 1 21 C5.29 21 9.58 21 14 21 C14 21.33 14 21.66 14 22 C8.06 22 2.12 22 -4 22 C-4.66 19.36 -5.32 16.72 -6 14 C-6 16.64 -6 19.28 -6 22 C-7.65 22 -9.3 22 -11 22 C-10.34 21.67 -9.68 21.34 -9 21 C-9.22816406 20.22914062 -9.45632812 19.45828125 -9.69140625 18.6640625 C-9.97886719 17.66117188 -10.26632813 16.65828125 -10.5625 15.625 C-10.85253906 14.62726563 -11.14257812 13.62953125 -11.44140625 12.6015625 C-12 10 -12 10 -11 8 C-9.68 8 -8.36 8 -7 8 C-7 7.34 -7 6.68 -7 6 C-5.02 6 -3.04 6 -1 6 C-0.67 4.02 -0.34 2.04 0 0 Z " fill="#04669E" transform="translate(108,52)"/>
<path d="M0 0 C0.66 0 1.32 0 2 0 C1.26307084 3.14164535 0.44437265 6.10596396 -1 9 C-4.1875 10.5625 -4.1875 10.5625 -7 11 C-6.67 12.65 -6.34 14.3 -6 16 C-3.23735711 16.59732819 -0.83967231 17 2 17 C1.5800521 19.51968738 1.1969193 21.63685986 -0.02734375 23.89453125 C-2.25245443 28.71113631 -1.292299 34.99234136 0 40 C-1.65 40 -3.3 40 -5 40 C-4.01 39.505 -4.01 39.505 -3 39 C-3 33.72 -3 28.44 -3 23 C-2.34 23 -1.68 23 -1 23 C-1 22.01 -1 21.02 -1 20 C-2.258125 19.67 -3.51625 19.34 -4.8125 19 C-5.52019531 18.814375 -6.22789063 18.62875 -6.95703125 18.4375 C-9.14070009 17.8952993 -9.14070009 17.8952993 -12 18 C-11.34 16.02 -10.68 14.04 -10 12 C-10.66 11.67 -11.32 11.34 -12 11 C-9.62371351 5.96786391 -6.84467413 4.37829458 -2 2 C-1.34 2 -0.68 2 0 2 C0 1.34 0 0.68 0 0 Z " fill="#F3FAE9" transform="translate(82,33)"/>
<path d="M0 0 C2.64 0.66 5.28 1.32 8 2 C8 2.99 8 3.98 8 5 C8.185625 5.70125 8.37125 6.4025 8.5625 7.125 C8.706875 7.74375 8.85125 8.3625 9 9 C6.7977242 11.2022758 1.86324363 10.45232235 -1.1171875 10.62109375 C-4.19258834 10.80950152 -4.19258834 10.80950152 -7 13 C-10 11 -10 11 -11 10 C-12.99958364 9.95919217 -15.00045254 9.95745644 -17 10 C-17.33 8.68 -17.66 7.36 -18 6 C-15.03 5.34 -12.06 4.68 -9 4 C-8.01 5.485 -8.01 5.485 -7 7 C-6.01 6.34 -5.02 5.68 -4 5 C-4 5.66 -4 6.32 -4 7 C-2.35 6.67 -0.7 6.34 1 6 C0.67 4.02 0.34 2.04 0 0 Z " fill="#D3D7D7" transform="translate(80,95)"/>
<path d="M0 0 C1.65 0 3.3 0 5 0 C5 1.32 5 2.64 5 4 C6.32 4 7.64 4 9 4 C9 4.99 9 5.98 9 7 C7.68 7 6.36 7 5 7 C5 9.31 5 11.62 5 14 C6.32 14 7.64 14 9 14 C9 15.32 9 16.64 9 18 C5.625 18.1875 5.625 18.1875 2 18 C-0.67927341 13.98108988 -0.15601248 11.75838077 0 7 C-0.66 7 -1.32 7 -2 7 C-2 6.01 -2 5.02 -2 4 C-1.34 4 -0.68 4 0 4 C0 2.68 0 1.36 0 0 Z " fill="#0668A0" transform="translate(96,79)"/>
<path d="M0 0 C-2.20939403 2.38418786 -4.4816778 3.99843628 -7.25 5.6875 C-16.00316436 11.4992601 -21.19531173 18.82567057 -24 29 C-24.75472033 33.97533934 -24.92444649 38.97225739 -25 44 C-25.66 44 -26.32 44 -27 44 C-27.78222598 31.43223596 -26.58699072 21.06917667 -18.16894531 11.07763672 C-5.66017293 -2.83008646 -5.66017293 -2.83008646 0 0 Z " fill="#6CA560" transform="translate(83,33)"/>
<path d="M0 0 C1.98 0 3.96 0 6 0 C5.38193878 2.76915662 4.61377678 4.81701067 3.375 7.4375 C1.12706624 13.16050045 2.24610231 19.04148329 3 25 C0.03 25 -2.94 25 -6 25 C-6 24.34 -6 23.68 -6 23 C-4.35 23 -2.7 23 -1 23 C-1.00523682 22.37432129 -1.01047363 21.74864258 -1.01586914 21.10400391 C-1.03661618 18.27767943 -1.04965286 15.45137095 -1.0625 12.625 C-1.07087891 11.64015625 -1.07925781 10.6553125 -1.08789062 9.640625 C-1.09111328 8.69960937 -1.09433594 7.75859375 -1.09765625 6.7890625 C-1.10289307 5.91975098 -1.10812988 5.05043945 -1.11352539 4.15478516 C-1 2 -1 2 0 0 Z " fill="#5CB5D9" transform="translate(139,80)"/>
<path d="M0 0 C1.875 0.25 1.875 0.25 4 1 C5.25 3.0625 5.25 3.0625 6 5 C5.34 5 4.68 5 4 5 C3.7215625 6.36125 3.7215625 6.36125 3.4375 7.75 C1.75705189 11.549274 0.41273511 12.50155461 -3.1796875 14.3203125 C-5.53191944 15.1986137 -7.51771624 15.30088288 -10 15 C-9.67 13.35 -9.34 11.7 -9 10 C-8.071875 9.87625 -8.071875 9.87625 -7.125 9.75 C-4.83647371 9.20051917 -4.83647371 9.20051917 -3.875 7.0625 C-3.58625 6.381875 -3.2975 5.70125 -3 5 C-2.34 4.34 -1.68 3.68 -1 3 C-0.34 3.33 0.32 3.66 1 4 C0.67 2.68 0.34 1.36 0 0 Z " fill="#F5811F" transform="translate(86,33)"/>
<path d="M0 0 C0.99 0.33 1.98 0.66 3 1 C2.979375 1.99 2.95875 2.98 2.9375 4 C3.57124668 9.01886487 7.31115752 11.31884427 11.06640625 14.30078125 C11.70449219 14.86152344 12.34257813 15.42226563 13 16 C13 16.66 13 17.32 13 18 C12.34 18 11.68 18 11 18 C11 18.66 11 19.32 11 20 C9.35 19.67 7.7 19.34 6 19 C6.33 16.69 6.66 14.38 7 12 C4.03 11.505 4.03 11.505 1 11 C0.7525 11.61875 0.505 12.2375 0.25 12.875 C-1.20628639 15.35068687 -2.37812506 15.95125002 -5 17 C-5.33 15.68 -5.66 14.36 -6 13 C-5.38125 12.814375 -4.7625 12.62875 -4.125 12.4375 C-0.90015259 10.25598557 -0.76672901 7.70585687 0 4 C0 2.68 0 1.36 0 0 Z " fill="#EBF5E2" transform="translate(115,30)"/>
<path d="M0 0 C2.125 0.9375 2.125 0.9375 4 2 C4 3.98 4 5.96 4 8 C5.11375 8.12375 6.2275 8.2475 7.375 8.375 C11 9 11 9 13 11 C4.09 11 -4.82 11 -14 11 C-13.34 10.01 -12.68 9.02 -12 8 C-9.1796875 7.48828125 -9.1796875 7.48828125 -5.875 7.3125 C-4.23144531 7.21388672 -4.23144531 7.21388672 -2.5546875 7.11328125 C-1.29011719 7.05720703 -1.29011719 7.05720703 0 7 C-0.66 5.02 -1.32 3.04 -2 1 C-1.34 0.67 -0.68 0.34 0 0 Z " fill="#F8FCFC" transform="translate(88,97)"/>
<path d="M0 0 C9.82110522 5.74893964 15.05393781 14.21670899 18.62890625 24.875 C19.17630774 28.00959381 19.09192554 31.07204171 19.0625 34.25 C19.05347656 35.51328125 19.04445312 36.7765625 19.03515625 38.078125 C19.02355469 39.04234375 19.01195312 40.0065625 19 41 C18.34 41 17.68 41 17 41 C16.90203125 39.87722656 16.8040625 38.75445312 16.703125 37.59765625 C15.40463799 24.07980248 12.46688369 13.10309102 1.625 4 C0.75875 3.34 -0.1075 2.68 -1 2 C-0.67 1.34 -0.34 0.68 0 0 Z " fill="#68A363" transform="translate(119,36)"/>
<path d="M0 0 C0.78375 0.185625 1.5675 0.37125 2.375 0.5625 C4.97089775 1.25962266 4.97089775 1.25962266 7 0 C7.144375 1.093125 7.28875 2.18625 7.4375 3.3125 C7.88288104 6.93122987 7.88288104 6.93122987 9 10 C8.01 10 7.02 10 6 10 C6.33 10.66 6.66 11.32 7 12 C7.23188406 19.30434783 7.23188406 19.30434783 6 23 C5.01 22.67 4.02 22.34 3 22 C2.875 14.25 2.875 14.25 4 12 C3.34 11.67 2.68 11.34 2 11 C2.66 9.35 3.32 7.7 4 6 C3.34 6 2.68 6 2 6 C2 7.32 2 8.64 2 10 C1.34 10 0.68 10 0 10 C0 6.7 0 3.4 0 0 Z " fill="#0AABD0" transform="translate(115,50)"/>
<path d="M0 0 C1.65 0 3.3 0 5 0 C5 6.27 5 12.54 5 19 C3.35 19 1.7 19 0 19 C0 12.73 0 6.46 0 0 Z " fill="#60A051" transform="translate(125,78)"/>
<path d="M0 0 C2.31 0 4.62 0 7 0 C7.02911321 3.0833134 7.04683682 6.16659125 7.0625 9.25 C7.07087891 10.12269531 7.07925781 10.99539062 7.08789062 11.89453125 C7.09111328 12.73886719 7.09433594 13.58320312 7.09765625 14.453125 C7.10289307 15.22817383 7.10812988 16.00322266 7.11352539 16.80175781 C7.00036998 18.99283598 6.60552448 20.89637861 6 23 C5.01 23 4.02 23 3 23 C2.67 15.74 2.34 8.48 2 1 C1.34 0.67 0.68 0.34 0 0 Z " fill="#84D1F0" transform="translate(52,80)"/>
<path d="M0 0 C0.66 0.66 1.32 1.32 2 2 C1.38253906 2.31710938 0.76507813 2.63421875 0.12890625 2.9609375 C-10.36796776 8.74460324 -17.18367491 16.13859793 -21.140625 27.53515625 C-22.35079733 32.41435106 -22.70320561 37.18506597 -22.859375 42.19921875 C-23 45 -23 45 -24 47 C-24.66 46.67 -25.32 46.34 -26 46 C-25.72980032 29.61607387 -21.02011584 17.53765098 -9.328125 6.05859375 C-6.38714158 3.45809331 -3.51668663 1.72093176 0 0 Z " fill="#BFF0E1" transform="translate(79,31)"/>
<path d="M0 0 C1.32 0 2.64 0 4 0 C4.66 1.32 5.32 2.64 6 4 C5.01 4.495 5.01 4.495 4 5 C3.690625 6.134375 3.38125 7.26875 3.0625 8.4375 C2 12 2 12 -1 14 C-1.66 13.34 -2.32 12.68 -3 12 C-5.06874034 11.3574765 -5.06874034 11.3574765 -7 11 C-5.50596652 6.38207835 -3.35726951 3.4372045 0 0 Z " fill="#EFC63F" transform="translate(111,30)"/>
<path d="M0 0 C0.99 0.33 1.98 0.66 3 1 C3.33 4.3 3.66 7.6 4 11 C5.32 11.33 6.64 11.66 8 12 C7.67 12.99 7.34 13.98 7 15 C1.72 15 -3.56 15 -9 15 C-9 13.68 -9 12.36 -9 11 C-7.01432292 10.51171875 -5.02864583 10.0234375 -3.04296875 9.53515625 C-1.34316798 9.08989295 0.33301954 8.55566015 2 8 C2 7.01 2 6.02 2 5 C0.68 5.33 -0.64 5.66 -2 6 C-1.34 4.02 -0.68 2.04 0 0 Z " fill="#DCE3DB" transform="translate(122,90)"/>
<path d="M0 0 C10.52542932 5.15531232 15.36322378 13.49723507 20 24 C20.90238747 26.70716242 21.11851302 28.23776768 21.09765625 31.01171875 C21.09443359 31.76904297 21.09121094 32.52636719 21.08789062 33.30664062 C21.07951172 34.09232422 21.07113281 34.87800781 21.0625 35.6875 C21.05798828 36.48478516 21.05347656 37.28207031 21.04882812 38.10351562 C21.0370585 40.06904257 21.01912348 42.03453085 21 44 C20.34 44 19.68 44 19 44 C19.05220703 43.01773438 19.05220703 43.01773438 19.10546875 42.015625 C19.468644 29.77143088 16.7532586 19.64357689 9 10 C6.65795233 7.71752747 4.27192708 5.60567099 1.72265625 3.55859375 C1.15417969 3.04425781 0.58570312 2.52992187 0 2 C0 1.34 0 0.68 0 0 Z " fill="#4C9EAD" transform="translate(120,33)"/>
<path d="M0 0 C0.33 0.66 0.66 1.32 1 2 C1.66 2 2.32 2 3 2 C3 1.34 3 0.68 3 0 C3.66 0 4.32 0 5 0 C5.103125 0.639375 5.20625 1.27875 5.3125 1.9375 C5.6528125 2.9584375 5.6528125 2.9584375 6 4 C6.99 4.33 7.98 4.66 9 5 C8.67 6.32 8.34 7.64 8 9 C6.68 9.33 5.36 9.66 4 10 C4 11.65 4 13.3 4 15 C3.67 15 3.34 15 3 15 C3 13.35 3 11.7 3 10 C1.02 9.34 -0.96 8.68 -3 8 C-2.25 2.25 -2.25 2.25 0 0 Z " fill="#136393" transform="translate(104,42)"/>
<path d="M0 0 C0.66 0.33 1.32 0.66 2 1 C2 1.99 2 2.98 2 4 C-0.64 4 -3.28 4 -6 4 C-6.33 4.99 -6.66 5.98 -7 7 C-6.01 7.33 -5.02 7.66 -4 8 C-4.99 8.495 -4.99 8.495 -6 9 C-5.01 9.33 -4.02 9.66 -3 10 C-3 10.66 -3 11.32 -3 12 C-9.75 10.25 -9.75 10.25 -12 8 C-12.375 5.5625 -12.375 5.5625 -12 3 C-8.70534067 -0.9810467 -4.76547403 -0.30744994 0 0 Z " fill="#61A34F" transform="translate(119,78)"/>
<path d="M0 0 C3.46941546 0.45822468 6.67395049 0.89131683 10 2 C12.92807444 2.12343843 15.82195435 2.18514627 18.75 2.1875 C19.53632812 2.19974609 20.32265625 2.21199219 21.1328125 2.22460938 C26.16828074 2.23715622 30.21200078 1.53577333 35 0 C37.9375 -0.125 37.9375 -0.125 40 0 C34.13372202 4.96377368 28.04715369 5.34158954 20.6875 5.3125 C19.88376953 5.32861328 19.08003906 5.34472656 18.25195312 5.36132812 C12.44804791 5.3659974 7.30120969 4.44370933 2 2 C1.34 1.34 0.68 0.68 0 0 Z " fill="#6EAD6D" transform="translate(77,109)"/>
<path d="M0 0 C2.4375 0.8125 2.4375 0.8125 4.4375 2.8125 C5.00270003 5.46787372 5.17538198 8.10394713 5.4375 10.8125 C4.7775 10.8125 4.1175 10.8125 3.4375 10.8125 C2.7775 10.1525 2.1175 9.4925 1.4375 8.8125 C1.4375 7.4925 1.4375 6.1725 1.4375 4.8125 C0.7775 4.8125 0.1175 4.8125 -0.5625 4.8125 C-0.2325 6.4625 0.0975 8.1125 0.4375 9.8125 C-0.5525 9.8125 -1.5425 9.8125 -2.5625 9.8125 C-2.5625 8.8225 -2.5625 7.8325 -2.5625 6.8125 C-4.2125 7.1425 -5.8625 7.4725 -7.5625 7.8125 C-4.69681877 -0.34366967 -4.69681877 -0.34366967 0 0 Z " fill="#D7629E" transform="translate(93.5625,62.1875)"/>
<path d="M0 0 C1.65 0.33 3.3 0.66 5 1 C5 1.99 5 2.98 5 4 C4.34 4 3.68 4 3 4 C3 4.66 3 5.32 3 6 C5.97 6 8.94 6 12 6 C12 6.33 12 6.66 12 7 C10.845 7.0825 9.69 7.165 8.5 7.25 C4.36843848 7.74255271 1.27044306 9.14144522 -2.3359375 11.16015625 C-4 12 -4 12 -6 12 C-7.33783393 12.31478446 -8.67203709 12.64587656 -10 13 C-9.34 12.34 -8.68 11.68 -8 11 C-8.66 10.34 -9.32 9.68 -10 9 C-7.36 8.34 -4.72 7.68 -2 7 C-1.34 4.69 -0.68 2.38 0 0 Z " fill="#E6F7F8" transform="translate(130,99)"/>
<path d="M0 0 C4.2974665 4.2974665 3.84584821 8.05768745 4.3125 13.9375 C4.26794013 18.50043047 2.55392581 22.26232026 0 26 C-0.66 26.33 -1.32 26.66 -2 27 C-2 25.68 -2 24.36 -2 23 C-2.66 22.67 -3.32 22.34 -4 22 C-2.35 21.67 -0.7 21.34 1 21 C0.74438677 18.6568787 0.40729228 16.32156597 0 14 C-0.66 13.67 -1.32 13.34 -2 13 C-1.34 11.68 -0.68 10.36 0 9 C0.33 9 0.66 9 1 9 C0.67 6.03 0.34 3.06 0 0 Z " fill="#4F7AE5" transform="translate(252,49)"/>
<path d="M0 0 C0.66 0 1.32 0 2 0 C2 0.66 2 1.32 2 2 C2.66 2 3.32 2 4 2 C4.33 5.96 4.66 9.92 5 14 C3.35 14 1.7 14 0 14 C0 12.35 0 10.7 0 9 C-2.31 9.33 -4.62 9.66 -7 10 C-7.66 9.01 -8.32 8.02 -9 7 C-5.7 7 -2.4 7 1 7 C0.67 4.69 0.34 2.38 0 0 Z " fill="#ECFCFC" transform="translate(92,84)"/>
<path d="M0 0 C0.66 0.66 1.32 1.32 2 2 C1.67 5.96 1.34 9.92 1 14 C-8.24 14.33 -17.48 14.66 -27 15 C-27 18.63 -27 22.26 -27 26 C-27.33 26 -27.66 26 -28 26 C-28.02686553 24.02090602 -28.04633375 22.04171029 -28.0625 20.0625 C-28.07410156 18.96035156 -28.08570313 17.85820313 -28.09765625 16.72265625 C-28 14 -28 14 -27 13 C-25.00035018 12.91241997 -22.9976389 12.89303424 -20.99609375 12.90234375 C-19.78115234 12.90556641 -18.56621094 12.90878906 -17.31445312 12.91210938 C-16.03505859 12.92048828 -14.75566406 12.92886719 -13.4375 12.9375 C-12.15423828 12.94201172 -10.87097656 12.94652344 -9.54882812 12.95117188 C-6.36583978 12.96300455 -3.18294238 12.97948932 0 13 C0 9.37 0 5.74 0 2 C-3.63 2 -7.26 2 -11 2 C-11 1.67 -11 1.34 -11 1 C-9.20991533 0.77848451 -7.41781838 0.57317787 -5.625 0.375 C-4.62726563 0.25898437 -3.62953125 0.14296875 -2.6015625 0.0234375 C-1.74304688 0.01570313 -0.88453125 0.00796875 0 0 Z " fill="#4B71CB" transform="translate(315,38)"/>
<path d="M0 0 C0.33 0.99 0.66 1.98 1 3 C1.66 3 2.32 3 3 3 C3 6.96 3 10.92 3 15 C1.02 14.01 -0.96 13.02 -3 12 C-2.67 10.35 -2.34 8.7 -2 7 C-2.66 7 -3.32 7 -4 7 C-3.67 5.02 -3.34 3.04 -3 1 C-2.01 0.67 -1.02 0.34 0 0 Z " fill="#F5FBF4" transform="translate(132,61)"/>
<path d="M0 0 C0.33 0.66 0.66 1.32 1 2 C1.66 2 2.32 2 3 2 C3 2.66 3 3.32 3 4 C5.97 4 8.94 4 12 4 C11.67 4.99 11.34 5.98 11 7 C8.69 7 6.38 7 4 7 C4 8.98 4 10.96 4 13 C2.68 13 1.36 13 0 13 C0 8.71 0 4.42 0 0 Z " fill="#1A628D" transform="translate(63,84)"/>
<path d="M0 0 C0.33 0 0.66 0 1 0 C1.18276122 4.66041121 0.76719039 7.73795259 -1 12 C-1.45395602 14.66387381 -1.726319 17.30880349 -2 20 C-1.67 18.68 -1.34 17.36 -1 16 C-0.34 16 0.32 16 1 16 C1 17.65 1 19.3 1 21 C5.29 21 9.58 21 14 21 C14 21.33 14 21.66 14 22 C8.06 22 2.12 22 -4 22 C-5.08588957 13.31288344 -5.08588957 13.31288344 -3 10 C-3 9.01 -3 8.02 -3 7 C-2.34 6.67 -1.68 6.34 -1 6 C-0.34227572 2.97065509 -0.34227572 2.97065509 0 0 Z " fill="#1F7B9E" transform="translate(108,52)"/>
<path d="M0 0 C3.95827235 -0.05785647 7.9164367 -0.09354717 11.875 -0.125 C13.00292969 -0.14175781 14.13085938 -0.15851563 15.29296875 -0.17578125 C16.36933594 -0.18222656 17.44570312 -0.18867187 18.5546875 -0.1953125 C19.54968262 -0.20578613 20.54467773 -0.21625977 21.56982422 -0.22705078 C24 0 24 0 26 2 C21.99514647 3.33495118 18.31797418 3.18416695 14.125 3.1875 C12.92037109 3.20586914 12.92037109 3.20586914 11.69140625 3.22460938 C7.33774351 3.23536801 3.9650101 3.03066307 0 1 C0 0.67 0 0.34 0 0 Z " fill="#DEF3EE" transform="translate(82,109)"/>
<path d="M0 0 C0.99 0 1.98 0 3 0 C2.67 4.29 2.34 8.58 2 13 C3.65 13 5.3 13 7 13 C6.01 10.03 5.02 7.06 4 4 C5.32 3.67 6.64 3.34 8 3 C7.67 4.65 7.34 6.3 7 8 C7.66 8 8.32 8 9 8 C9.12375 8.78375 9.2475 9.5675 9.375 10.375 C9.79117993 13.14057822 9.79117993 13.14057822 12 15 C3.80743982 15.63019694 3.80743982 15.63019694 0.4375 13 C-0.2740625 12.01 -0.2740625 12.01 -1 11 C-0.67 10.67 -0.34 10.34 0 10 C0.07205511 8.31391034 0.08386068 6.62499341 0.0625 4.9375 C0.05347656 4.01839844 0.04445313 3.09929688 0.03515625 2.15234375 C0.02355469 1.44207031 0.01195313 0.73179688 0 0 Z " fill="#C0EAEF" transform="translate(121,60)"/>
<path d="M0 0 C0.66 0 1.32 0 2 0 C4 3 4 3 4 7 C-2.93 7 -9.86 7 -17 7 C-17 6.67 -17 6.34 -17 6 C-14.36 6 -11.72 6 -9 6 C-9 5.01 -9 4.02 -9 3 C-4.375 0.875 -4.375 0.875 -1 2 C-1.33 2.99 -1.66 3.98 -2 5 C-1.01 5 -0.02 5 1 5 C0.67 3.35 0.34 1.7 0 0 Z " fill="#C9488B" transform="translate(93,67)"/>
<path d="M0 0 C0.3403125 0.9590625 0.3403125 0.9590625 0.6875 1.9375 C1.83876445 4.23876958 1.83876445 4.23876958 4.4375 4.75 C7.06852628 5.04854998 7.06852628 5.04854998 10 5 C9.5800521 7.51968738 9.1969193 9.63685986 7.97265625 11.89453125 C5.74754557 16.71113631 6.707701 22.99234136 8 28 C6.35 28 4.7 28 3 28 C3.66 27.67 4.32 27.34 5 27 C5 21.72 5 16.44 5 11 C5.66 11 6.32 11 7 11 C7 10.01 7 9.02 7 8 C6.05125 7.690625 5.1025 7.38125 4.125 7.0625 C1 6 1 6 -1 5 C-0.67 3.35 -0.34 1.7 0 0 Z " fill="#FEEDD9" transform="translate(74,45)"/>
<path d="M0 0 C0.33 0 0.66 0 1 0 C1.04254356 1.99954746 1.04080783 4.00041636 1 6 C0.67 6.33 0.34 6.66 0 7 C-0.23363881 8.84891946 -0.41303635 10.70488031 -0.5625 12.5625 C-0.64628906 13.57441406 -0.73007812 14.58632812 -0.81640625 15.62890625 C-0.87699219 16.41136719 -0.93757813 17.19382812 -1 18 C-2.32 18.33 -3.64 18.66 -5 19 C-5.47191953 11.29198093 -4.33819529 6.50729293 0 0 Z " fill="#F7FDFD" transform="translate(64,55)"/>
<path d="M0 0 C2.375 1.0625 2.375 1.0625 5 3 C6.3125 6.6875 6.3125 6.6875 7 10 C6 11 6 11 3.71484375 11.09765625 C2.34005859 11.08025391 2.34005859 11.08025391 0.9375 11.0625 C0.01839844 11.05347656 -0.90070313 11.04445313 -1.84765625 11.03515625 C-2.55792969 11.02355469 -3.26820312 11.01195313 -4 11 C-4 10.67 -4 10.34 -4 10 C-2.35 10 -0.7 10 1 10 C0.4740625 8.9171875 0.4740625 8.9171875 -0.0625 7.8125 C-1.10409017 4.6877295 -0.89096572 3.11838004 0 0 Z " fill="#2392AC" transform="translate(70,63)"/>
<path d="M0 0 C2.97 0.495 2.97 0.495 6 1 C6 3.64 6 6.28 6 9 C4.081875 8.8453125 4.081875 8.8453125 2.125 8.6875 C1.04605469 8.60048828 1.04605469 8.60048828 -0.0546875 8.51171875 C-2 8 -2 8 -4 5 C-2.68 3.35 -1.36 1.7 0 0 Z " fill="#F9FCFC" transform="translate(116,41)"/>
<path d="M0 0 C0.66 0 1.32 0 2 0 C2.36618557 7.4457732 2.36618557 7.4457732 0.84375 9.75 C-1.73476679 11.49814698 -3.60552328 11.29627565 -6.6875 11.1875 C-7.68136719 11.16042969 -8.67523438 11.13335937 -9.69921875 11.10546875 C-10.45847656 11.07066406 -11.21773438 11.03585938 -12 11 C-9 9 -9 9 -5.4375 7.1875 C-2.71018635 5.66273604 -2.07407156 5.14170212 -0.5625 2.25 C-0.376875 1.5075 -0.19125 0.765 0 0 Z " fill="#E75A15" transform="translate(90,38)"/>
<path d="M0 0 C0.66 0.99 1.32 1.98 2 3 C1.125 6.6875 1.125 6.6875 0 10 C-2.64 10.66 -5.28 11.32 -8 12 C-6.49087042 7.01987239 -3.44338151 3.75740058 0 0 Z " fill="#E4F9DC" transform="translate(70,42)"/>
<path d="M0 0 C1.65 0 3.3 0 5 0 C5 1.32 5 2.64 5 4 C6.32 4 7.64 4 9 4 C9 4.99 9 5.98 9 7 C7.68 7 6.36 7 5 7 C5 9.31 5 11.62 5 14 C4.67 14 4.34 14 4 14 C3.95101562 13.21753906 3.90203125 12.43507813 3.8515625 11.62890625 C3.77679688 10.61699219 3.70203125 9.60507813 3.625 8.5625 C3.52058594 7.04849609 3.52058594 7.04849609 3.4140625 5.50390625 C3.27742188 4.67761719 3.14078125 3.85132812 3 3 C2.34 2.67 1.68 2.34 1 2 C1 6.29 1 10.58 1 15 C0.67 15 0.34 15 0 15 C0 12.36 0 9.72 0 7 C-0.66 7 -1.32 7 -2 7 C-2 6.01 -2 5.02 -2 4 C-1.34 4 -0.68 4 0 4 C0 2.68 0 1.36 0 0 Z " fill="#407F9D" transform="translate(96,79)"/>
<path d="M0 0 C2.31 0.66 4.62 1.32 7 2 C6.67 2.99 6.34 3.98 6 5 C7.65 5 9.3 5 11 5 C10.67 6.32 10.34 7.64 10 9 C7.33333333 9 4.66666667 9 2 9 C1.34 6.03 0.68 3.06 0 0 Z " fill="#CFD3D3" transform="translate(90,96)"/>
<path d="M0 0 C3.36591427 2.72478774 4.44226276 6.06856792 6 10 C5.34 10 4.68 10 4 10 C4 10.66 4 11.32 4 12 C1.13275314 11.42655063 0.1385485 11.1385485 -2 9 C-1.6875 7.1875 -1.6875 7.1875 -1 5 C-0.65939189 3.33480481 -0.32441604 1.66842534 0 0 Z " fill="#E3F9DC" transform="translate(128,48)"/>
<path d="M0 0 C0.66 0.33 1.32 0.66 2 1 C2.66 3.31 3.32 5.62 4 8 C9.61 8.33 15.22 8.66 21 9 C21 9.33 21 9.66 21 10 C12.42 10 3.84 10 -5 10 C-5 9.67 -5 9.34 -5 9 C-3.35 8.67 -1.7 8.34 0 8 C0 5.36 0 2.72 0 0 Z " fill="#C9EDF8" transform="translate(101,65)"/>
<path d="M0 0 C1.32 0 2.64 0 4 0 C4.66 1.32 5.32 2.64 6 4 C4.68 4.33 3.36 4.66 2 5 C2 5.99 2 6.98 2 8 C0.35 8.33 -1.3 8.66 -3 9 C-2.25 2.25 -2.25 2.25 0 0 Z " fill="#F0BD23" transform="translate(111,30)"/>
<path d="M0 0 C0.99 0 1.98 0 3 0 C3.0582253 3.08325358 3.09367134 6.16636505 3.125 9.25 C3.14175781 10.12269531 3.15851562 10.99539062 3.17578125 11.89453125 C3.18222656 12.73886719 3.18867187 13.58320312 3.1953125 14.453125 C3.20578613 15.22817383 3.21625977 16.00322266 3.22705078 16.80175781 C2.97326556 19.25883539 2.22444152 20.87311542 1 23 C-0.0176403 17.98391475 -0.11856434 13.21391694 -0.0625 8.125 C-0.05798828 7.34125 -0.05347656 6.5575 -0.04882812 5.75 C-0.03714093 3.83329986 -0.01920908 1.91663952 0 0 Z " fill="#A9DDEF" transform="translate(56,80)"/>
<path d="M0 0 C0.66 0.33 1.32 0.66 2 1 C1.195625 1.226875 0.39125 1.45375 -0.4375 1.6875 C-1.283125 2.120625 -2.12875 2.55375 -3 3 C-3.89386164 5.54775306 -3.89386164 5.54775306 -4 8 C-3.34 8.33 -2.68 8.66 -2 9 C-2.763125 9.28875 -3.52625 9.5775 -4.3125 9.875 C-7.15029308 10.96269013 -7.15029308 10.96269013 -10 13 C-9.72690064 9.08557587 -9.25007787 7.2973899 -6.6875 4.25 C-4.45624003 2.3819684 -2.7365501 0.94363797 0 0 Z " fill="#1E6A94" transform="translate(97,53)"/>
<path d="M0 0 C0.33 1.32 0.66 2.64 1 4 C4.3 4.33 7.6 4.66 11 5 C10.67 7.31 10.34 9.62 10 12 C11.32 12.33 12.64 12.66 14 13 C13.01 13.99 12.02 14.98 11 16 C11 15.01 11 14.02 11 13 C9.35 13.66 7.7 14.32 6 15 C6.99 12.03 7.98 9.06 9 6 C8.071875 6.20625 7.14375 6.4125 6.1875 6.625 C3 7 3 7 0 5 C-0.1875 2.375 -0.1875 2.375 0 0 Z " fill="#DF8851" transform="translate(75,44)"/>
<path d="M0 0 C2.12161334 2.12161334 2.92986249 3.7733159 4.125 6.5 C4.47820312 7.2940625 4.83140625 8.088125 5.1953125 8.90625 C6 11 6 11 6 13 C0.25 16 0.25 16 -2 16 C-2 15.34 -2 14.68 -2 14 C-1.34 13.67 -0.68 13.34 0 13 C0 8.71 0 4.42 0 0 Z " fill="#E38540" transform="translate(92,39)"/>
<path d="M0 0 C3 5.625 3 5.625 3 9 C1.02 9 -0.96 9 -3 9 C-3 7.02 -3 5.04 -3 3 C-3.66 2.67 -4.32 2.34 -5 2 C-2 0 -2 0 0 0 Z " fill="#0FB7DA" transform="translate(113,63)"/>
<path d="M0 0 C0 0.66 0 1.32 0 2 C-5.28 2 -10.56 2 -16 2 C-16.33 1.34 -16.66 0.68 -17 0 C-11.55211412 -1.81596196 -5.53613706 -1.42868053 0 0 Z " fill="#75AD72" transform="translate(106,30)"/>
<path d="M0 0 C0 1.65 0 3.3 0 5 C-3 5 -6 5 -9 5 C-9.33 3.68 -9.66 2.36 -10 1 C-8.71073008 0.63720544 -7.41846728 0.28503302 -6.125 -0.0625 C-5.40570313 -0.25972656 -4.68640625 -0.45695312 -3.9453125 -0.66015625 C-2 -1 -2 -1 0 0 Z " fill="#CBC8C9" transform="translate(72,100)"/>
<path d="M0 0 C1.65 0.33 3.3 0.66 5 1 C4 5 4 5 3.375 6.9375 C2.90690932 9.51199874 3.37045414 11.48181657 4 14 C3.01 13.67 2.02 13.34 1 13 C0.63631108 11.39796533 0.28438048 9.79325797 -0.0625 8.1875 C-0.25972656 7.29417969 -0.45695312 6.40085937 -0.66015625 5.48046875 C-1 3 -1 3 0 0 Z " fill="#0FAED0" transform="translate(67,59)"/>
<path d="M0 0 C3.375 0.3125 3.375 0.3125 7 1 C7.66 1.99 8.32 2.98 9 4 C8.34 4 7.68 4 7 4 C6.67 4.99 6.34 5.98 6 7 C3.69 7 1.38 7 -1 7 C0.75 3.125 0.75 3.125 3 2 C2.01 1.34 1.02 0.68 0 0 Z " fill="#70AAC5" transform="translate(84,82)"/>
<path d="M0 0 C0.78375 0.185625 1.5675 0.37125 2.375 0.5625 C4.97089775 1.25962266 4.97089775 1.25962266 7 0 C7.144375 1.093125 7.28875 2.18625 7.4375 3.3125 C7.88288104 6.93122987 7.88288104 6.93122987 9 10 C8.01 10 7.02 10 6 10 C6 7.69 6 5.38 6 3 C4.68 3 3.36 3 2 3 C2 5.31 2 7.62 2 10 C1.34 10 0.68 10 0 10 C0 6.7 0 3.4 0 0 Z " fill="#41AFC7" transform="translate(115,50)"/>
<path d="M0 0 C2.62187494 1.04874998 3.79371361 1.64931313 5.25 4.125 C5.4975 4.74375 5.745 5.3625 6 6 C5.34 6 4.68 6 4 6 C4 6.66 4 7.32 4 8 C2.35 7.67 0.7 7.34 -1 7 C-0.67 4.69 -0.34 2.38 0 0 Z " fill="#C7E2BA" transform="translate(122,42)"/>
<path d="M0 0 C1.98 0 3.96 0 6 0 C6.042721 1.66611905 6.04063832 3.33382885 6 5 C5 6 5 6 2.4375 6.0625 C1.2309375 6.0315625 1.2309375 6.0315625 0 6 C0 4.02 0 2.04 0 0 Z " fill="#E3F9FC" transform="translate(67,82)"/>
<path d="M0 0 C0.33 0.66 0.66 1.32 1 2 C1.66 2.33 2.32 2.66 3 3 C2.835 3.7425 2.67 4.485 2.5 5.25 C1.88074304 8.19006578 1.88074304 8.19006578 2 12 C5.63 12 9.26 12 13 12 C13 12.33 13 12.66 13 13 C8.38 13 3.76 13 -1 13 C-0.67 8.71 -0.34 4.42 0 0 Z " fill="#C7F2F4" transform="translate(63,62)"/>
<path d="M0 0 C3.25696479 0.41755959 4.63443291 0.63443291 7 3 C7.56520003 5.65537372 7.73788198 8.29144713 8 11 C7.34 11 6.68 11 6 11 C5.34 8.36 4.68 5.72 4 3 C0.14061025 3.91052075 0.14061025 3.91052075 -3 5 C-1.125 1.125 -1.125 1.125 0 0 Z " fill="#E2DBF3" transform="translate(91,62)"/>
<path d="M0 0 C2.75 0.25 2.75 0.25 5 1 C4.1875 3.4375 4.1875 3.4375 3 6 C2.01 6.33 1.02 6.66 0 7 C-2.1875 5.5625 -2.1875 5.5625 -4 4 C-2.3125 1.9375 -2.3125 1.9375 0 0 Z " fill="#E2E0E3" transform="translate(101,101)"/>
<path d="M0 0 C0.33 0 0.66 0 1 0 C1.14285714 7.42857143 1.14285714 7.42857143 0 11 C1.98 11 3.96 11 6 11 C6 11.66 6 12.32 6 13 C3.36 13 0.72 13 -2 13 C-1.85851011 11.3954444 -1.71164314 9.79136233 -1.5625 8.1875 C-1.48128906 7.29417969 -1.40007813 6.40085937 -1.31640625 5.48046875 C-1 3 -1 3 0 0 Z " fill="#58AACA" transform="translate(53,92)"/>
<path d="M0 0 C2.31 0 4.62 0 7 0 C6.67 0.99 6.34 1.98 6 3 C5.34 3 4.68 3 4 3 C4 3.99 4 4.98 4 6 C2 7 0 8 -2 9 C-1.855625 8.443125 -1.71125 7.88625 -1.5625 7.3125 C-0.97230872 4.88615805 -0.476571 2.45093655 0 0 Z " fill="#F8EACA" transform="translate(83,31)"/>
<path d="M0 0 C1.65 0 3.3 0 5 0 C5 0.66 5 1.32 5 2 C4.01 2 3.02 2 2 2 C2 3.65 2 5.3 2 7 C0.824375 7.4640625 0.824375 7.4640625 -0.375 7.9375 C-2.92330128 8.92875038 -2.92330128 8.92875038 -5 10 C-5 8.68 -5 7.36 -5 6 C-3.35 6 -1.7 6 0 6 C0 4.02 0 2.04 0 0 Z " fill="#E0F3FB" transform="translate(67,91)"/>
<path d="M0 0 C0.9126354 2.99479617 1.00692589 5.22346574 0.5625 8.3125 C0.05309294 12.2571393 -0.08455606 16.02586519 0 20 C-0.33 20 -0.66 20 -1 20 C-2.78101956 12.31214579 -3.58428244 7.16856487 0 0 Z " fill="#D5F7FB" transform="translate(143,84)"/>
<path d="M0 0 C0.33 0 0.66 0 1 0 C1 2.64 1 5.28 1 8 C1.99 8.33 2.98 8.66 4 9 C2.7625 9.7734375 2.7625 9.7734375 1.5 10.5625 C-1.40072402 12.85789852 -1.40072402 12.85789852 -1.3125 16.75 C-1.1578125 18.35875 -1.1578125 18.35875 -1 20 C-1.66 20 -2.32 20 -3 20 C-3.17151487 14.94031127 -3.03461345 11.66764263 -1 7 C-0.6186926 4.67402489 -0.27539746 2.34087842 0 0 Z " fill="#A9E7F6" transform="translate(109,52)"/>
<path d="M0 0 C0.33 0.66 0.66 1.32 1 2 C1.66 2.33 2.32 2.66 3 3 C3 3.66 3 4.32 3 5 C2.34 5 1.68 5 1 5 C0.89365234 5.93585937 0.89365234 5.93585937 0.78515625 6.890625 C0 9 0 9 -2.06640625 10.046875 C-2.89011719 10.27890625 -3.71382813 10.5109375 -4.5625 10.75 C-5.80193359 11.11351563 -5.80193359 11.11351563 -7.06640625 11.484375 C-8.02353516 11.73960938 -8.02353516 11.73960938 -9 12 C-6.75 9.5 -6.75 9.5 -4 7 C-2.68 7 -1.36 7 0 7 C-0.185625 6.401875 -0.37125 5.80375 -0.5625 5.1875 C-1 3 -1 3 0 0 Z " fill="#16A3C8" transform="translate(117,53)"/>
<path d="M0 0 C0.93065133 2.60582371 1.14917407 3.64198224 0.0625 6.25 C-0.4634375 7.11625 -0.4634375 7.11625 -1 8 C-2.65 8 -4.3 8 -6 8 C-6.33 8.66 -6.66 9.32 -7 10 C-6.67 8.35 -6.34 6.7 -6 5 C-5.38125 4.9175 -4.7625 4.835 -4.125 4.75 C-1.81562433 4.18741541 -1.81562433 4.18741541 -0.75 1.9375 C-0.5025 1.298125 -0.255 0.65875 0 0 Z " fill="#EE9332" transform="translate(83,38)"/>
<path d="M0 0 C2.31 0.66 4.62 1.32 7 2 C7 2.66 7 3.32 7 4 C8.32 4.33 9.64 4.66 11 5 C9.5629191 5.05422947 8.12524538 5.09289723 6.6875 5.125 C5.88699219 5.14820312 5.08648437 5.17140625 4.26171875 5.1953125 C2 5 2 5 -1 3 C-0.67 2.01 -0.34 1.02 0 0 Z " fill="#619B51" transform="translate(108,92)"/>
<path d="M0 0 C2.97 0.495 2.97 0.495 6 1 C6 4.3 6 7.6 6 11 C4.35 11 2.7 11 1 11 C1.66 10.67 2.32 10.34 3 10 C2.01 6.7 1.02 3.4 0 0 Z " fill="#377096" transform="translate(96,63)"/>
<path d="M0 0 C0.33 0 0.66 0 1 0 C0.67 2.97 0.34 5.94 0 9 C-0.33 8.01 -0.66 7.02 -1 6 C-3.31 6.33 -5.62 6.66 -8 7 C-8.66 6.01 -9.32 5.02 -10 4 C-6.7 4 -3.4 4 0 4 C0 2.68 0 1.36 0 0 Z " fill="#C0E6F0" transform="translate(93,87)"/>
<path d="M0 0 C0.66 0 1.32 0 2 0 C1.98839844 0.80824219 1.97679688 1.61648437 1.96484375 2.44921875 C1.95582031 3.51785156 1.94679688 4.58648437 1.9375 5.6875 C1.92589844 6.74324219 1.91429688 7.79898438 1.90234375 8.88671875 C1.99134575 11.72410262 2.35060162 14.2438919 3 17 C1.35 17 -0.3 17 -2 17 C-1.34 16.67 -0.68 16.34 0 16 C0 10.72 0 5.44 0 0 Z " fill="#FDE8C8" transform="translate(79,56)"/>
<path d="M0 0 C5.65020618 0.60108576 10.66164461 2.07528683 16 4 C16 4.33 16 4.66 16 5 C10.01488629 4.65697965 5.24882694 4.17692157 0 1 C0 0.67 0 0.34 0 0 Z " fill="#4F945F" transform="translate(77,109)"/>
<path d="M0 0 C1.5 1.0625 1.5 1.0625 3 3 C3.1875 6.6875 3.1875 6.6875 3 10 C2.34 10 1.68 10 1 10 C-0.83691257 6.21812119 -1.15837626 4.05431692 0 0 Z " fill="#038FB6" transform="translate(70,63)"/>
<path d="M0 0 C0 0.99 0 1.98 0 3 C-3.37362154 5.60250805 -5.76907828 6.36265043 -10 6 C-9.34 5.01 -8.68 4.02 -8 3 C-6.68 3 -5.36 3 -4 3 C-4 2.34 -4 1.68 -4 1 C-2 0 -2 0 0 0 Z " fill="#FCFCFB" transform="translate(124,95)"/>
<path d="M0 0 C0.99 0 1.98 0 3 0 C2.67 0.99 2.34 1.98 2 3 C4.31 4.98 6.62 6.96 9 9 C4.96933184 9 3.21696992 7.32716973 0 5 C-0.66 4.34 -1.32 3.68 -2 3 C-1.34 2.01 -0.68 1.02 0 0 Z " fill="#CDF4ED" transform="translate(119,32)"/>
<path d="M0 0 C0.33 0.66 0.66 1.32 1 2 C1.66 2 2.32 2 3 2 C3.33 3.32 3.66 4.64 4 6 C3.34 6 2.68 6 2 6 C2 7.65 2 9.3 2 11 C1.34 11 0.68 11 0 11 C0 7.37 0 3.74 0 0 Z " fill="#036095" transform="translate(63,84)"/>
<path d="M0 0 C0.99 0.33 1.98 0.66 3 1 C3.33 3.31 3.66 5.62 4 8 C2.68 7.67 1.36 7.34 0 7 C0 4.69 0 2.38 0 0 Z " fill="#186994" transform="translate(74,79)"/>
<path d="M0 0 C0.33 1.65 0.66 3.3 1 5 C0.360625 5.103125 -0.27875 5.20625 -0.9375 5.3125 C-1.618125 5.539375 -2.29875 5.76625 -3 6 C-3.33 6.99 -3.66 7.98 -4 9 C-5 8 -5 8 -5.25 5.625 C-5 3 -5 3 -3.625 1.1875 C-2 0 -2 0 0 0 Z " fill="#F9FEF6" transform="translate(128,48)"/>
<path d="M0 0 C4.78504172 2.48454089 7.86077669 4.47951843 11 9 C7.25983417 9 6.54723807 8.0658409 3.8125 5.625 C3.09707031 4.99851562 2.38164063 4.37203125 1.64453125 3.7265625 C0 2 0 2 0 0 Z " fill="#5AA3B4" transform="translate(120,33)"/>
<path d="M0 0 C1.32 0.99 2.64 1.98 4 3 C2.68 3 1.36 3 0 3 C0 2.01 0 1.02 0 0 Z M-9 2 C-6.03 2.33 -3.06 2.66 0 3 C-1.485 4.485 -1.485 4.485 -3 6 C-4.98 5.34 -6.96 4.68 -9 4 C-9 3.34 -9 2.68 -9 2 Z " fill="#E2F7F3" transform="translate(106,94)"/>
<path d="M0 0 C0 1.32 0 2.64 0 4 C-2.31 4 -4.62 4 -7 4 C-7.33 3.34 -7.66 2.68 -8 2 C-4.91190305 0.23537317 -3.76687864 0 0 0 Z " fill="#357498" transform="translate(105,93)"/>
<path d="M0 0 C0.99 0 1.98 0 3 0 C2.34 4.29 1.68 8.58 1 13 C0.34 13 -0.32 13 -1 13 C-1.33 11.35 -1.66 9.7 -2 8 C-1.34 8 -0.68 8 0 8 C0 5.36 0 2.72 0 0 Z " fill="#DF7533" transform="translate(83,60)"/>
<path d="M0 0 C0.99 0 1.98 0 3 0 C2.67 1.65 2.34 3.3 2 5 C2.66 5 3.32 5 4 5 C4 6.32 4 7.64 4 9 C3.34 9 2.68 9 2 9 C0.4375 6.1875 0.4375 6.1875 -1 3 C-0.67 2.01 -0.34 1.02 0 0 Z " fill="#92C080" transform="translate(126,63)"/>
<path d="M0 0 C0.33 0 0.66 0 1 0 C0.95875 0.78375 0.9175 1.5675 0.875 2.375 C0.71271266 5.16116119 0.71271266 5.16116119 3 7 C-0.3 6.67 -3.6 6.34 -7 6 C-7 5.34 -7 4.68 -7 4 C-5.02 3.67 -3.04 3.34 -1 3 C-0.67 2.01 -0.34 1.02 0 0 Z " fill="#F7FBFA" transform="translate(70,101)"/>
<path d="M0 0 C1.98 0.66 3.96 1.32 6 2 C6 2.66 6 3.32 6 4 C3.6875 4.625 3.6875 4.625 1 5 C0.01 4.34 -0.98 3.68 -2 3 C-1.34 3 -0.68 3 0 3 C0 2.01 0 1.02 0 0 Z " fill="#DCF3D1" transform="translate(112,89)"/>
<path d="M0 0 C2.89932357 2.39509338 3.50168276 4.31245243 4 8 C3.01 8 2.02 8 1 8 C-1 5 -1 5 -0.625 2.3125 C-0.41875 1.549375 -0.2125 0.78625 0 0 Z " fill="#0C6398" transform="translate(81,86)"/>
<path d="M0 0 C0.99 0.33 1.98 0.66 3 1 C2.67 1.66 2.34 2.32 2 3 C2.66 3 3.32 3 4 3 C4 4.98 4 6.96 4 9 C3.34 9 2.68 9 2 9 C0.50178941 5.62902617 0 3.79557881 0 0 Z " fill="#57B8DA" transform="translate(49,80)"/>
<path d="M0 0 C0.99 0 1.98 0 3 0 C3 2.64 3 5.28 3 8 C2.01 8 1.02 8 0 8 C0 5.36 0 2.72 0 0 Z " fill="#F5FDFB" transform="translate(110,52)"/>
<path d="M0 0 C0.99 0.33 1.98 0.66 3 1 C0.69 3.31 -1.62 5.62 -4 8 C-4.99 7.67 -5.98 7.34 -7 7 C-4.69 4.69 -2.38 2.38 0 0 Z " fill="#56A8B7" transform="translate(68,36)"/>
<path d="M0 0 C1.875 0.25 1.875 0.25 4 1 C5.25 3.0625 5.25 3.0625 6 5 C3.69 5.33 1.38 5.66 -1 6 C-1 5.01 -1 4.02 -1 3 C-0.34 3.33 0.32 3.66 1 4 C0.67 2.68 0.34 1.36 0 0 Z " fill="#E2903F" transform="translate(86,33)"/>
<path d="M0 0 C0.66 0.33 1.32 0.66 2 1 C-0.54456151 3.96865509 -3.48994665 5.3619751 -7 7 C-7.66 6.34 -8.32 5.68 -9 5 C-7.54735962 4.1361871 -6.0876837 3.28419546 -4.625 2.4375 C-3.40683594 1.72400391 -3.40683594 1.72400391 -2.1640625 0.99609375 C-1.44992188 0.66738281 -0.73578125 0.33867188 0 0 Z " fill="#7AAC6F" transform="translate(81,32)"/>
<path d="M0 0 C-3.18382329 2.81645906 -5.75534029 3.72317437 -10 4 C-10.66 3.34 -11.32 2.68 -12 2 C-7.8803623 0.70756464 -4.33168317 -0.26252625 0 0 Z " fill="#65A16B" transform="translate(117,109)"/>
<path d="M0 0 C1.98 0 3.96 0 6 0 C6.33 1.32 6.66 2.64 7 4 C4.69 4 2.38 4 0 4 C0 2.68 0 1.36 0 0 Z " fill="#B6B5B4" transform="translate(113,101)"/>
<path d="M0 0 C0.33 0.99 0.66 1.98 1 3 C1.99 3.33 2.98 3.66 4 4 C3.01 4.495 3.01 4.495 2 5 C2.99 5.33 3.98 5.66 5 6 C5 6.66 5 7.32 5 8 C2.64828869 7.40138258 0.3140622 6.73075648 -2 6 C-2.33 5.34 -2.66 4.68 -3 4 C-2.01 4 -1.02 4 0 4 C0 2.68 0 1.36 0 0 Z " fill="#6CA35B" transform="translate(111,82)"/>
<path d="M0 0 C2.475 0.495 2.475 0.495 5 1 C5 2.65 5 4.3 5 6 C3.0625 5.25 3.0625 5.25 1 4 C0.25 1.875 0.25 1.875 0 0 Z " fill="#90B978" transform="translate(126,54)"/>
<path d="M0 0 C0.99 0.33 1.98 0.66 3 1 C2.39009109 4.55780196 1.4216319 7.6828589 0 11 C-0.33 11 -0.66 11 -1 11 C-1.125 8.125 -1.125 8.125 -1 5 C-0.34 4.34 0.32 3.68 1 3 C0.67 2.01 0.34 1.02 0 0 Z " fill="#FBEFB8" transform="translate(115,30)"/>
<path d="M0 0 C0.99 0.33 1.98 0.66 3 1 C2.34 1.66 1.68 2.32 1 3 C0.35232207 5.57061311 0.35232207 5.57061311 0 8 C-1.65 8 -3.3 8 -5 8 C-4.54625 7.4225 -4.0925 6.845 -3.625 6.25 C-2.15886484 4.2199667 -1.05142216 2.26460157 0 0 Z " fill="#CBEBF6" transform="translate(79,83)"/>
<path d="M0 0 C1.32 0 2.64 0 4 0 C4 1.98 4 3.96 4 6 C3.01 6 2.02 6 1 6 C0.67 4.02 0.34 2.04 0 0 Z " fill="#DFF6F8" transform="translate(75,66)"/>
<path d="M0 0 C0.99 1.32 1.98 2.64 3 4 C1.25 7.875 1.25 7.875 -1 9 C-0.67 6.03 -0.34 3.06 0 0 Z M-2 9 C-2 9.99 -2 10.98 -2 12 C-2.66 11.67 -3.32 11.34 -4 11 C-3.34 10.34 -2.68 9.68 -2 9 Z " fill="#4F7CEE" transform="translate(239,59)"/>
<path d="M0 0 C1.485 0.99 1.485 0.99 3 2 C2.34 2 1.68 2 1 2 C1.33 3.65 1.66 5.3 2 7 C2.66 6.34 3.32 5.68 4 5 C4.33 6.32 4.66 7.64 5 9 C4.01 9.66 3.02 10.32 2 11 C-0.67927341 6.98108988 -0.15601248 4.75838077 0 0 Z " fill="#D3F5EA" transform="translate(122,49)"/>
<path d="M0 0 C0.66 0.33 1.32 0.66 2 1 C1.34 2.65 0.68 4.3 0 6 C-1.32 5.67 -2.64 5.34 -4 5 C-3.6875 3.0625 -3.6875 3.0625 -3 1 C-2.01 0.67 -1.02 0.34 0 0 Z " fill="#94C087" transform="translate(70,46)"/>
<path d="M0 0 C0 1.32 0 2.64 0 4 C-1.32 4.33 -2.64 4.66 -4 5 C-4 4.34 -4 3.68 -4 3 C-5.65 3 -7.3 3 -9 3 C-5.73209435 0.82139623 -3.91954654 0 0 0 Z " fill="#C2E6DD" transform="translate(110,27)"/>
<path d="M0 0 C0.99 0 1.98 0 3 0 C3 1.32 3 2.64 3 4 C-0.63 4 -4.26 4 -8 4 C-8 3.67 -8 3.34 -8 3 C-5.36 3 -2.72 3 0 3 C0 2.01 0 1.02 0 0 Z " fill="#CB8884" transform="translate(84,70)"/>
<path d="M0 0 C0.33 1.32 0.66 2.64 1 4 C0.01 4 -0.98 4 -2 4 C-2 4.99 -2 5.98 -2 7 C-2.66 7 -3.32 7 -4 7 C-4.33 7.66 -4.66 8.32 -5 9 C-4.66666667 7.66666667 -4.33333333 6.33333333 -4 5 C-3.87625 4.278125 -3.7525 3.55625 -3.625 2.8125 C-3.41875 2.214375 -3.2125 1.61625 -3 1 C-2.01 0.67 -1.02 0.34 0 0 Z " fill="#34A6C0" transform="translate(69,55)"/>
<path d="M0 0 C0.66 0 1.32 0 2 0 C2 0.66 2 1.32 2 2 C3.32 2.33 4.64 2.66 6 3 C5.01 3.99 4.02 4.98 3 6 C3 5.01 3 4.02 3 3 C1.35 3.66 -0.3 4.32 -2 5 C-1.34 3.35 -0.68 1.7 0 0 Z " fill="#DF7C3A" transform="translate(83,54)"/>
<path d="M0 0 C0.66 0 1.32 0 2 0 C1.67 1.98 1.34 3.96 1 6 C0.01 6.33 -0.98 6.66 -2 7 C-2.66 6.34 -3.32 5.68 -4 5 C-3.34 5 -2.68 5 -2 5 C-1.34 3.35 -0.68 1.7 0 0 Z " fill="#E04D0F" transform="translate(90,42)"/>
<path d="M0 0 C3 2 3 2 3.6875 4.625 C3.8421875 5.800625 3.8421875 5.800625 4 7 C2.68 7.33 1.36 7.66 0 8 C0 5.36 0 2.72 0 0 Z " fill="#09628E" transform="translate(97,87)"/>
<path d="M0 0 C1.32 0.66 2.64 1.32 4 2 C4 2.99 4 3.98 4 5 C2.35 5.33 0.7 5.66 -1 6 C-0.67 4.02 -0.34 2.04 0 0 Z " fill="#EFF9E6" transform="translate(108,87)"/>
<path d="M0 0 C0.99 0 1.98 0 3 0 C2.67 2.31 2.34 4.62 2 7 C1.34 7 0.68 7 0 7 C0 4.69 0 2.38 0 0 Z " fill="#42B4E2" transform="translate(140,81)"/>
<path d="M0 0 C0.33 0 0.66 0 1 0 C1.125 7.625 1.125 7.625 0 11 C-0.99 10.67 -1.98 10.34 -3 10 C-2.67 8.68 -2.34 7.36 -2 6 C-1.34 6 -0.68 6 0 6 C0 4.02 0 2.04 0 0 Z " fill="#36B7CD" transform="translate(121,62)"/>
<path d="M0 0 C0.33 0 0.66 0 1 0 C1 2.64 1 5.28 1 8 C0.01 8 -0.98 8 -2 8 C-1.125 1.125 -1.125 1.125 0 0 Z " fill="#0FB4D5" transform="translate(120,60)"/>
<path d="M0 0 C2 2 2 2 2.125 4.625 C2.08375 5.40875 2.0425 6.1925 2 7 C0.68 6.34 -0.64 5.68 -2 5 C-2 4.01 -2 3.02 -2 2 C-1.34 2 -0.68 2 0 2 C0 1.34 0 0.68 0 0 Z " fill="#0094BD" transform="translate(115,61)"/>
<path d="M0 0 C0.66 0 1.32 0 2 0 C2.33 1.98 2.66 3.96 3 6 C2.01 6 1.02 6 0 6 C-1 3 -1 3 0 0 Z " fill="#1676B1" transform="translate(94,56)"/>
<path d="M0 0 C-0.33 1.65 -0.66 3.3 -1 5 C-1.99 4.67 -2.98 4.34 -4 4 C-4.33 5.32 -4.66 6.64 -5 8 C-5.1875 5.125 -5.1875 5.125 -5 2 C-2 0 -2 0 0 0 Z " fill="#C9EFEF" transform="translate(70,52)"/>
<path d="M0 0 C2 2 2 2 2 5 C0.35 5 -1.3 5 -3 5 C-3 3.68 -3 2.36 -3 1 C-2.01 0.67 -1.02 0.34 0 0 Z " fill="#C9C9C6" transform="translate(110,100)"/>
<path d="M0 0 C0.33 0 0.66 0 1 0 C1.25 2.8125 1.25 2.8125 1 6 C-1 7.875 -1 7.875 -3 9 C-3.66 8.01 -4.32 7.02 -5 6 C-3.35 5.67 -1.7 5.34 0 5 C0 3.35 0 1.7 0 0 Z " fill="#E9C349" transform="translate(113,35)"/>
<path d="M0 0 C0.66 0 1.32 0 2 0 C2 1.32 2 2.64 2 4 C1.34 4 0.68 4 0 4 C-0.66 5.32 -1.32 6.64 -2 8 C-2.99 7.67 -3.98 7.34 -5 7 C-4.01 6.34 -3.02 5.68 -2 5 C-0.79549696 2.44816596 -0.79549696 2.44816596 0 0 Z " fill="#EA6818" transform="translate(90,38)"/>
<path d="M0 0 C0.66 0 1.32 0 2 0 C2 2.64 2 5.28 2 8 C1.01 8 0.02 8 -1 8 C-1.33 7.34 -1.66 6.68 -2 6 C-1.34 6 -0.68 6 0 6 C-0.2784375 4.7934375 -0.2784375 4.7934375 -0.5625 3.5625 C-0.706875 2.716875 -0.85125 1.87125 -1 1 C-0.67 0.67 -0.34 0.34 0 0 Z " fill="#049FC5" transform="translate(117,62)"/>
</svg>
